<svg xmlns="http://www.w3.org/2000/svg" xmlns:xlink="http://www.w3.org/1999/xlink" viewBox="0,0,256,256" width="48px" height="48px" fill-rule="nonzero"><g fill-opacity="0" fill="#dddddd" fill-rule="nonzero" stroke="none" stroke-width="1" stroke-linecap="butt" stroke-linejoin="miter" stroke-miterlimit="10" stroke-dasharray="" stroke-dashoffset="0" font-family="none" font-weight="none" font-size="none" text-anchor="none" style="mix-blend-mode: normal"><path d="M0,256v-256h256v256z" id="bgRectangle"></path></g><g fill="none" fill-rule="nonzero" stroke="#000000" stroke-width="3" stroke-linecap="round" stroke-linejoin="round" stroke-miterlimit="10" stroke-dasharray="" stroke-dashoffset="0" font-family="none" font-weight="none" font-size="none" text-anchor="none" style="mix-blend-mode: normal"><g transform="scale(5.33333,5.33333)"><path d="M37.8,36.5h1c1.5,0 2.5,-1.6 1.8,-2.9l-1.7,-3.4c-0.9,-1.8 -1.3,-3.7 -1.3,-5.7v-4.1c0,-7.3 -5.6,-13.5 -12.8,-13.9c-6.4,-0.3 -11.9,3.9 -13.6,9.6"></path><path d="M10.5,23.6v0.9c0,2 -0.5,3.9 -1.3,5.7l-1.7,3.4c-0.7,1.3 0.3,2.9 1.8,2.9h23.1"></path><path d="M30.1,37.2c0,3.4 -2.7,6.1 -6.1,6.1c-3.4,0 -6.1,-2.7 -6.1,-6.1"></path><path d="M5.5,17.5h-4"></path><path d="M7.5,8.5l-3.1,-2.5"></path><path d="M46.5,17.5h-4"></path><path d="M43.6,6l-3.1,2.5"></path><path d="M20.5,6.7v-1.7c0,-1.9 1.6,-3.5 3.5,-3.5v0c1.9,0 3.5,1.6 3.5,3.5v1.8"></path></g></g></svg>