<?xml version="1.0" encoding="UTF-8"?>
<svg version="1.1" xmlns="http://www.w3.org/2000/svg" width="390" height="850">
<path d="M0 0 C18.81 0 37.62 0 57 0 C57.99 4.62 58.98 9.24 60 14 C65.10090402 24.91356209 72.2688845 33.76000975 81 42 C81.66 41.01 82.32 40.02 83 39 C83.23418764 53.29948624 83.40956007 67.59867281 83.51812172 81.89968681 C83.57023746 88.54108718 83.640879 95.18063051 83.75439453 101.82128906 C83.86332317 108.23399602 83.92289951 114.64546386 83.94877243 121.05902481 C83.96720155 123.50153226 84.00319154 125.94397442 84.05730057 128.385952 C84.48590448 148.5368186 84.48590448 148.5368186 80.83685303 153.66461182 C78.350333 156.18435903 75.96102135 158.08064838 73 160 C71.75245746 161.10458739 70.51911312 162.22584358 69.3125 163.375 C67.88348855 164.59336036 66.44460106 165.80016523 65 167 C64.50467773 167.41443359 64.00935547 167.82886719 63.49902344 168.25585938 C32.45080685 194.10810313 -13.61220402 226.66817465 -56 223 C-65.4669954 221.3863076 -74.88082535 216.58665104 -80.81640625 208.90234375 C-85.42455237 201.49585148 -86.15623844 193.16660503 -84.56640625 184.6875 C-79.91329676 168.50277132 -67.15697328 157.84002278 -53 150 C-43.73394125 145.18889071 -34.20360092 140.88067032 -24.4453125 137.16796875 C-20.01016784 135.04958496 -17.44261549 133.07767251 -15.5625 128.5 C-14.95872593 124.74318357 -14.90290913 124.00346065 -17 121 C-19.5809006 119.25766318 -19.5809006 119.25766318 -22.5625 117.8125 C-27.95989305 115.04010695 -27.95989305 115.04010695 -29 114 C-29.1875 111.0625 -29.1875 111.0625 -29 108 C-27 106 -27 106 -23.1875 105.625 C-17.82180203 105.72066074 -13.06693455 107.32527205 -8.015625 109.02734375 C-1.59775666 111.09735569 4.43325832 111.21568338 11.125 111.25 C12.10726562 111.270625 13.08953125 111.29125 14.1015625 111.3125 C23.93710508 111.36426601 34.39689432 109.75461905 42 103 C47.75822252 95.94649803 51.57878533 88.12549046 50.82421875 78.8359375 C48.31642506 64.49845032 36.82541691 54.11603161 25.97265625 45.4765625 C10.34509684 32.45701892 2.28610461 20.57494149 0 0 Z M7 4 C7 5.65 7 7.3 7 9 C7.33 9 7.66 9 8 9 C8 7.35 8 5.7 8 4 C7.67 4 7.34 4 7 4 Z M8 9 C9 12 9 12 9 12 Z M9 12 C10 14 10 14 10 14 Z M10 14 C11 17 11 17 11 17 Z M25.2734375 116.47949219 C21.38607375 117.36951146 17.47368167 117.46967694 13.5 117.625 C12.67757812 117.66367188 11.85515625 117.70234375 11.0078125 117.7421875 C9.0055299 117.83531692 7.00279738 117.91868985 5 118 C5 118.33 5 118.66 5 119 C8.33316277 119.08811914 11.66602047 119.14076197 15 119.1875 C15.93457031 119.21263672 16.86914062 119.23777344 17.83203125 119.26367188 C23.95913725 119.32794222 28.40193858 118.51516675 34 116 C30.4987232 114.83290773 28.74030529 115.53499295 25.2734375 116.47949219 Z M48 163 C47.67 163.66 47.34 164.32 47 165 C47.99 164.67 48.98 164.34 50 164 C49.34 163.67 48.68 163.34 48 163 Z M44 166 C43.67 166.66 43.34 167.32 43 168 C43.99 167.67 44.98 167.34 46 167 C45.34 166.67 44.68 166.34 44 166 Z M40 169 C39.67 169.66 39.34 170.32 39 171 C39.99 170.67 40.98 170.34 42 170 C41.34 169.67 40.68 169.34 40 169 Z M-57 209 C-57 209.33 -57 209.66 -57 210 C-55.02 210 -53.04 210 -51 210 C-51 209.67 -51 209.34 -51 209 C-52.98 209 -54.96 209 -57 209 Z M-38.109375 208.33984375 C-38.86347656 208.43330078 -39.61757813 208.52675781 -40.39453125 208.62304688 C-41.17183594 208.72681641 -41.94914062 208.83058594 -42.75 208.9375 C-43.54277344 209.03740234 -44.33554687 209.13730469 -45.15234375 209.24023438 C-47.10240371 209.48692871 -49.05132586 209.7425878 -51 210 C-51 210.33 -51 210.66 -51 211 C-43.70968976 211.2494783 -37.09326321 210.72330907 -30 209 C-32.89910284 208.13311141 -35.11452831 207.9541438 -38.109375 208.33984375 Z " fill="#AA9DA4" transform="translate(307,0)"/>
<path d="M0 0 C0.99 0.495 0.99 0.495 2 1 C6.35872531 17.07062715 3.1171721 35.23694395 -4.67602539 49.55615234 C-12.15634252 62.54536055 -22.54961818 71.01690636 -37 75 C-48.02570276 77.14177029 -58.94335939 77.23838273 -70.13493156 77.11976433 C-73.10198814 77.08907159 -76.06884164 77.07264268 -79.036026 77.05970764 C-87.46094085 77.02038554 -95.88560693 76.95512551 -104.31030273 76.88354492 C-109.49528153 76.84046062 -114.68017863 76.81259816 -119.86529732 76.79324532 C-121.81983042 76.78279662 -123.77434273 76.76653856 -125.72877312 76.74394035 C-148.56776063 76.48014462 -168.11853659 79.46307278 -185.5390625 95.5234375 C-194.48107727 104.52222697 -200.50011775 116.44723563 -201.1328125 129.25 C-200.39842048 144.45623482 -192.33608354 156.45283474 -182 167 C-178.46924399 170.18440073 -174.7489149 173.07863812 -171 176 C-135.23728572 205.14876652 -135.23728572 205.14876652 -133.0546875 225.19140625 C-132.86607119 234.87820112 -136.20407177 241.45832421 -142.45703125 248.68359375 C-150.74062775 256.75747895 -163.45329618 259.52405103 -174.1875 262.875 C-196.97328024 269.99247084 -220.18596171 278.20276905 -233.72265625 299.12890625 C-234.14417969 299.74636719 -234.56570312 300.36382813 -235 301 C-235.33 301 -235.66 301 -236 301 C-236.17445227 296.87449131 -236.30070887 292.75044004 -236.38452148 288.62207031 C-236.41949242 287.22129884 -236.46709032 285.82077858 -236.52807617 284.42089844 C-237.08460166 271.30747436 -237.08460166 271.30747436 -232.875 266.37109375 C-231.6203283 265.2062338 -230.32924859 264.07898006 -229 263 C-228.46189697 262.50967285 -227.92379395 262.0193457 -227.36938477 261.51416016 C-225.81272572 260.12562322 -224.2131852 258.8373997 -222.5625 257.5625 C-221.96832275 257.09932373 -221.37414551 256.63614746 -220.76196289 256.15893555 C-214.53287283 251.43673982 -207.80143231 247.76316502 -200.93847656 244.05859375 C-188.56881159 237.61019831 -188.56881159 237.61019831 -180 227 C-179.50945429 220.74554216 -180.6490508 216.08640548 -184.41723633 211.1394043 C-188.71722035 206.12811627 -193.32821272 202.16833528 -198.625 198.25 C-206.53017672 192.2447107 -213.89892523 185.93127592 -221 179 C-221.58749023 178.42765625 -222.17498047 177.8553125 -222.78027344 177.265625 C-224.58924393 175.49608448 -226.39068004 173.71937344 -228.1875 171.9375 C-228.74091064 171.38892334 -229.29432129 170.84034668 -229.86450195 170.27514648 C-235.85117569 164.26212875 -235.85117569 164.26212875 -236.24609566 160.91294575 C-236.24425207 160.1045333 -236.24240849 159.29612085 -236.24050903 158.46321106 C-236.24325836 157.53353012 -236.24600769 156.60384918 -236.24884033 155.64599609 C-236.24164978 154.62820068 -236.23445923 153.61040527 -236.22705078 152.56176758 C-236.22734283 151.48843674 -236.22763489 150.4151059 -236.22793579 149.30924988 C-236.22654017 145.75426201 -236.21096787 142.19948259 -236.1953125 138.64453125 C-236.1915832 136.18259292 -236.18873584 133.72065311 -236.18673706 131.25871277 C-236.17909409 124.77316198 -236.15943983 118.28770051 -236.1373291 111.80218506 C-236.116885 105.18649504 -236.10773841 98.57079062 -236.09765625 91.95507812 C-236.07619463 78.97001394 -236.04243409 65.98501171 -236 53 C-235.67 53 -235.34 53 -235 53 C-234.67 58.94 -234.34 64.88 -234 71 C-233.03320312 69.99839844 -232.06640625 68.99679687 -231.0703125 67.96484375 C-221.85798335 58.51505284 -213.03439035 50.95509243 -201.3125 44.8125 C-200.71381104 44.49095947 -200.11512207 44.16941895 -199.49829102 43.83813477 C-186.61637477 37.38966872 -173.68488747 36.31066631 -159.5625 36.5 C-158.30670639 36.50980392 -158.30670639 36.50980392 -157.02554321 36.51980591 C-142.97964094 36.64777045 -129.7280318 37.93845883 -116 41 C-114.40012064 41.34784801 -112.80000377 41.69460461 -111.19970703 42.04052734 C-103.93171056 43.61317224 -96.66475031 45.18912156 -89.41088867 46.82592773 C-76.38464148 49.76354524 -63.9213479 52.3541812 -50.5 52.3125 C-49.46230469 52.32861328 -48.42460937 52.34472656 -47.35546875 52.36132812 C-36.77305815 52.36791742 -25.58002605 50.64952019 -17 44 C-5.4027245 31.96552562 -2.27189745 16.0527491 0 0 Z " fill="#AA9EA5" transform="translate(236,239)"/>
<path d="M0 0 C7.93306267 5.04831261 13.91559353 9.35305117 20.25 15.9375 C21.00023438 16.69740234 21.75046875 17.45730469 22.5234375 18.24023438 C27.19802325 23.00847472 31.65716289 27.92919291 36 33 C45.96650119 45.27318771 45.96650119 45.27318771 60 51 C64.49670426 49.68917366 68.7260645 47.90492327 73 46 C83.20229097 41.52751681 93.96796324 39.983344 104.8125 43.5625 C118.04938834 49.12470637 126.91460317 60.67916874 134.17578125 72.62890625 C135.76955235 75.06550963 135.76955235 75.06550963 137.9296875 75.9375 C144.14509242 76.12513487 150.71141093 72.20411759 155.1640625 68.0859375 C158.11544884 64.73266025 160.61449396 61.06027583 163.16357422 57.39941406 C169.82750037 47.8665428 175.72840794 40.75719735 187 37 C196.66828347 35.97187988 204.81250874 38.80678062 212.796875 44.109375 C215.89507237 46.76811175 218.414646 49.85025302 221 53 C218.59571161 55.49143267 216.17459986 57.96584229 213.75 60.4375 C213.06808594 61.14455078 212.38617188 61.85160156 211.68359375 62.58007812 C211.01972656 63.25361328 210.35585937 63.92714844 209.671875 64.62109375 C209.0644043 65.2442749 208.45693359 65.86745605 207.83105469 66.50952148 C205.83695975 68.13271476 204.5397579 68.69675997 202 69 C201.34 68.67 200.68 68.34 200 68 C195.76089408 67.5346089 193.69785114 67.51437208 190.1484375 69.984375 C189.23320312 70.89703125 188.31796875 71.8096875 187.375 72.75 C186.33083355 73.76182648 185.28655889 74.7735413 184.2421875 75.78515625 C183.70948242 76.31383301 183.17677734 76.84250977 182.62792969 77.38720703 C159.69120965 100.11065822 159.69120965 100.11065822 147.10546875 101.265625 C134.09545192 101.19595958 124.5348002 98.58608174 114.9375 89.3125 C111.10080442 85.29789313 107.71691525 80.94298804 104.37109375 76.515625 C101.54707183 73.51946335 98.95333512 71.2861298 95 70 C92.0902443 70.29309066 90.02562552 70.68616145 87.3125 71.5625 C86.26920532 71.85979004 86.26920532 71.85979004 85.20483398 72.16308594 C83.79556025 72.56494978 82.38927074 72.97744174 80.98632812 73.40087891 C62.05638368 79.11057454 62.05638368 79.11057454 52.4375 74.8125 C44.1353767 70.32914243 37.13500323 64.10524494 30 58 C28.74000688 56.93439482 27.47960273 55.86927542 26.21875 54.8046875 C20.07313116 49.59344683 14.02702659 44.28415235 8.0859375 38.83984375 C6.14209462 37.12533065 4.07354079 35.55515559 2 34 C2 60.4 2 86.8 2 114 C7.55314681 108.44685319 8.14837513 106.99763927 8.21875 99.6796875 C8.16542715 92.26590662 6.99295501 85.36537692 5.5 78.125 C0.60627817 52.78744367 0.60627817 52.78744367 4 46 C6.12890625 45.65283203 6.12890625 45.65283203 9 46 C11.19308105 47.79149382 13.01667556 49.50476706 14.9375 51.5546875 C15.49888672 52.13026398 16.06027344 52.70584045 16.63867188 53.29885864 C18.43810817 55.14608935 20.22020877 57.00884861 22 58.875 C39.72731653 78.41794129 39.72731653 78.41794129 63.5 87.625 C69.44274567 87.41714562 74.9753857 85.2052234 80.4921875 83.13525391 C85.79451009 81.18621081 90.71528349 79.68841442 96.23046875 81.890625 C101.56487638 85.59596203 105.91615549 89.86601874 110.40136719 94.52197266 C117.56422991 101.81494474 126.34995338 108.24109355 136.875 108.375 C155.76856728 107.99072406 168.20361073 98.73236253 182 87 C182.66 87.33 183.32 87.66 184 88 C170.16493189 102.37526599 158.07789171 112.7598469 137.4375 113.3125 C123.02882344 112.95942858 113.09692286 104.6642785 103.41796875 94.53125 C102.95003906 94.0259375 102.48210937 93.520625 102 93 C97.99234597 88.78614314 97.99234597 88.78614314 93 86 C87.0756633 86.09712027 82.16539482 87.57463975 76.625 89.5625 C67.20829214 92.87006007 59.59215148 93.43304384 50.38671875 89.2421875 C33.81456394 80.61707256 20.97212277 65.11448103 8 52 C7.64726863 60.10400323 9.03567136 67.6098859 10.5 75.5625 C15.5016602 103.85603698 15.5016602 103.85603698 10 113 C8.28125 114.8984375 8.28125 114.8984375 6.5 116.375 C5.9121875 116.87773438 5.324375 117.38046875 4.71875 117.8984375 C3 119 3 119 0 119 C0 79.73 0 40.46 0 0 Z " fill="#AA9EA4" transform="translate(0,605)"/>
<path d="M0 0 C0.33 0 0.66 0 1 0 C1 31.68 1 63.36 1 96 C-36.29 96 -73.58 96 -112 96 C-112 95.67 -112 95.34 -112 95 C-94.51 94.67 -77.02 94.34 -59 94 C-61.64 91.69 -64.28 89.38 -67 87 C-69.05859375 84.671875 -69.05859375 84.671875 -70.4375 82.75 C-70.91058594 82.10546875 -71.38367188 81.4609375 -71.87109375 80.796875 C-74.57760805 76.48892836 -74.57626088 71.91516634 -74 67 C-71.91975911 62.56818245 -68.95808369 60.11071998 -65.25 57.0625 C-61.64709157 54.02043886 -61.64709157 54.02043886 -60.3125 49.5625 C-60.98307886 46.08768229 -61.73644362 42.64336959 -62.53125 39.1953125 C-63.39236984 35.16240124 -64.06354087 31.8242943 -61.90234375 28.1171875 C-57.84090148 22.94020241 -53.39076742 20.58767665 -46.8671875 19.45703125 C-41.62373163 18.8373501 -36.38987013 18.6550157 -31.11523438 18.48242188 C-22.81798049 18.12806695 -16.4732719 16.57733955 -9.1875 12.4375 C-3.22372881 9.07457627 -3.22372881 9.07457627 0 8 C0 5.36 0 2.72 0 0 Z " fill="#AA9DA4" transform="translate(389,754)"/>
<path d="M0 0 C46.53 0 93.06 0 141 0 C141 0.33 141 0.66 141 1 C93.975 1.495 93.975 1.495 46 2 C53.58617286 9.58617286 63.11950545 9.75699504 73.4375 11 C97.05460473 13.85388465 97.05460473 13.85388465 103.71484375 20.19921875 C106.12419192 23.57523549 106.36766146 26.94865349 106 31 C104.44665749 36.17780836 102.37052201 39.76961417 98 43 C90.79597206 45.02911366 84.01220574 43.22123221 76.9375 41.5 C69.89242584 39.7923686 64.17306932 38.55333056 57 40 C56.57600318 43.60397293 56.87962888 44.82696652 59 47.875 C61.43209716 51.67515181 61.7254032 53.56698047 61 58 C59.01484112 60.91570211 57.5456475 62.5524922 54.09765625 63.55078125 C50.97802974 63.85615736 48.89158246 63.65410489 46.328125 61.7734375 C42.64210092 57.76441131 40.336964 53.05345831 38.078125 48.13671875 C37.06969807 45.86118918 37.06969807 45.86118918 35 44 C31.91652174 43.83318891 31.91652174 43.83318891 29 44 C27.47571057 48.38995355 26.03064939 52.6869204 25.125 57.25 C23.83092998 61.56356675 22.54059733 63.26408388 19 66 C15.69130675 67.58541552 13.96138374 68.22890089 10.375 67.375 C7.62005722 65.78003313 5.94244242 64.54526938 4 62 C3.34 59.36 2.68 56.72 2 54 C1.67 72.48 1.34 90.96 1 110 C0.67 110 0.34 110 0 110 C0 73.7 0 37.4 0 0 Z " fill="#ADA1A7" transform="translate(0,0)"/>
<path d="M0 0 C0 10.89 0 21.78 0 33 C-3.63 30.69 -7.26 28.38 -11 26 C-31.99226064 17.20594487 -54.82792973 26.7371374 -75.04931641 33.47021484 C-89.01863411 38.10990963 -105.76636477 43.23594983 -119.92578125 36.3125 C-127.29405283 31.65009087 -131.35107949 25.27635072 -134 17 C-134.12890625 14.1640625 -134.12890625 14.1640625 -134 12 C-132.03580201 13.88563007 -130.17096739 15.78877953 -128.45703125 17.90625 C-123.50292618 23.98268093 -118.71793943 27.49646292 -110.9375 29 C-93.35857993 30.0913088 -72.48296295 18.6602023 -56.5234375 12.5234375 C-37.49287256 5.20816371 -20.58494036 0 0 0 Z " fill="#ADA0A7" transform="translate(390,692)"/>
<path d="M0 0 C2.28021105 1.85267148 2.87809674 2.80871105 3.30859375 5.69140625 C3.7410564 14.06545581 0.49512502 18.37505924 -4.6640625 24.6484375 C-9.31768994 30.44827859 -11.38295302 35.48910739 -10.6875 43 C-8.43811506 46.49904324 -6.36242608 46.84390144 -2.45703125 47.91015625 C2.14048722 49.24774906 6.59912262 51.22412262 10 54.625 C10 56.605 10 58.585 10 60.625 C-4.19 60.625 -18.38 60.625 -33 60.625 C-33 47.095 -33 33.565 -33 19.625 C-32.67 19.625 -32.34 19.625 -32 19.625 C-31.67 21.275 -31.34 22.925 -31 24.625 C-30.72325439 24.11114746 -30.44650879 23.59729492 -30.16137695 23.06787109 C-28.88535248 20.7080889 -27.59902739 18.3540714 -26.3125 16 C-25.87744141 15.19175781 -25.44238281 14.38351562 -24.99414062 13.55078125 C-19.43336764 3.41781714 -12.62900677 -5.78829477 0 0 Z " fill="#AB9FA6" transform="translate(33,789.375)"/>
<path d="M0 0 C0 4.70094701 -2.56831011 7.47398701 -5.66015625 10.76953125 C-18.81638535 23.16934472 -35.87416606 24.18838122 -53.05584908 24.04459953 C-55.24109196 24.02694228 -57.42625902 24.01682505 -59.61155701 24.00868225 C-65.81931723 23.98447565 -72.0269756 23.94907924 -78.23461914 23.90405273 C-82.05108404 23.87689599 -85.86749019 23.86009885 -89.68403435 23.84918404 C-91.11940615 23.84307581 -92.55476814 23.8332046 -93.99008369 23.81910515 C-111.8940775 23.64489087 -129.38250341 24.57834392 -144 36 C-144.61617187 36.47824219 -145.23234375 36.95648438 -145.8671875 37.44921875 C-152.87496155 43.63163274 -157.94427741 53.48848586 -159.0625 62.75 C-159.31067294 71.68422573 -156.91897871 78.83109575 -152.92578125 86.75 C-152.62027344 87.4925 -152.31476563 88.235 -152 89 C-152.495 89.99 -152.495 89.99 -153 91 C-162.20210576 78.618515 -166.19879439 68.61857833 -165 53 C-164.14056223 49.35515548 -162.77782421 46.28660084 -161 43 C-160.51402344 42.08347656 -160.02804688 41.16695313 -159.52734375 40.22265625 C-152.12779993 27.47025094 -141.1501618 21.15080202 -127.29526329 17.37057781 C-119.59116183 15.44127433 -112.05725269 15.51514818 -104.1640625 15.64453125 C-102.58955991 15.65457918 -101.0150436 15.6626477 -99.44052124 15.66886902 C-95.33369344 15.68957357 -91.22747139 15.73344857 -87.12091064 15.78363037 C-80.56019385 15.85951669 -73.99912776 15.89764441 -67.4381218 15.93912315 C-65.18238832 15.95641178 -62.92691673 15.98261391 -60.67129517 16.01069641 C-53.37305647 16.08714185 -46.11418499 15.98677453 -38.82568359 15.5769043 C-37.78768836 15.52017532 -37.78768836 15.52017532 -36.72872353 15.4623003 C-22.75187134 14.57892832 -10.18442478 9.72149638 0 0 Z " fill="#B0A4AA" transform="translate(218,315)"/>
<path d="M0 0 C6.79600953 5.25146191 11.22387551 13.67011384 13 22 C13.66276288 28.00118169 13.55625266 32.90270452 10 38 C3.08767604 44.61178813 -2.35764975 45.36239925 -11.5625 45.375 C-12.50802734 45.39949219 -13.45355469 45.42398438 -14.42773438 45.44921875 C-21.31581008 45.47842614 -21.31581008 45.47842614 -24.63671875 43.15625 C-26 41 -26 41 -26.25 38.125 C-24.83527434 34.58818584 -24.0421319 34.20211313 -20.9375 32.25 C-17.78046242 30.11000285 -17.78046242 30.11000285 -16.40234375 26.6796875 C-16.35810933 22.54692851 -16.9742147 18.78744277 -18.0625 14.8125 C-19.091114 10.62946972 -19.17077288 8.13673086 -18 4 C-12.61520563 -2.69460922 -7.7128327 -2.76941928 0 0 Z M-4 6 C-2.68 7.32 -1.36 8.64 0 10 C-0.66 8.68 -1.32 7.36 -2 6 C-2.66 6 -3.32 6 -4 6 Z M1 11 C1.33 11.99 1.66 12.98 2 14 C2 13.01 2 12.02 2 11 C1.67 11 1.34 11 1 11 Z M3 14 C4 16 4 16 4 16 Z M4 16 C5 18 5 18 5 18 Z M5 18 C6 20 6 20 6 20 Z " fill="#ACA0A6" transform="translate(331,57)"/>
<path d="M0 0 C0.33 0 0.66 0 1 0 C1.33 27.06 1.66 54.12 2 82 C7.55314681 76.44685319 8.14837513 74.99763927 8.21875 67.6796875 C8.16542715 60.26590662 6.99295501 53.36537692 5.5 46.125 C0.60627817 20.78744367 0.60627817 20.78744367 4 14 C6.12890625 13.65283203 6.12890625 13.65283203 9 14 C11.19308105 15.79149382 13.01667556 17.50476706 14.9375 19.5546875 C15.49888672 20.13026398 16.06027344 20.70584045 16.63867188 21.29885864 C18.43810817 23.14608935 20.22020877 25.00884861 22 26.875 C39.72731653 46.41794129 39.72731653 46.41794129 63.5 55.625 C69.44274567 55.41714562 74.9753857 53.2052234 80.4921875 51.13525391 C85.79451009 49.18621081 90.71528349 47.68841442 96.23046875 49.890625 C101.56487638 53.59596203 105.91615549 57.86601874 110.40136719 62.52197266 C117.56422991 69.81494474 126.34995338 76.24109355 136.875 76.375 C155.76856728 75.99072406 168.20361073 66.73236253 182 55 C182.66 55.33 183.32 55.66 184 56 C170.16493189 70.37526599 158.07789171 80.7598469 137.4375 81.3125 C123.02882344 80.95942858 113.09692286 72.6642785 103.41796875 62.53125 C102.71607422 61.77328125 102.71607422 61.77328125 102 61 C97.99234597 56.78614314 97.99234597 56.78614314 93 54 C87.0756633 54.09712027 82.16539482 55.57463975 76.625 57.5625 C67.20829214 60.87006007 59.59215148 61.43304384 50.38671875 57.2421875 C33.81456394 48.61707256 20.97212277 33.11448103 8 20 C7.64726863 28.10400323 9.03567136 35.6098859 10.5 43.5625 C15.5016602 71.85603698 15.5016602 71.85603698 10 81 C8.28125 82.8984375 8.28125 82.8984375 6.5 84.375 C5.9121875 84.87773438 5.324375 85.38046875 4.71875 85.8984375 C3 87 3 87 0 87 C0 58.29 0 29.58 0 0 Z " fill="#BAB0B5" transform="translate(0,637)"/>
<path d="M0 0 C3.32800288 1.45833834 5.56671085 3.31231354 8.1875 5.8125 C12.698856 9.95789055 17.42070556 13.68901385 22.3125 17.375 C27.7248338 21.46988145 33.09476047 25.59606248 38.3125 29.9375 C39.82263672 31.18853516 39.82263672 31.18853516 41.36328125 32.46484375 C44.77329898 35.74351265 47.48880435 38.85231438 48.6015625 43.52734375 C48.6470454 48.20450178 48.34007005 51.24495978 45.3125 54.9375 C42.78995724 57.45409336 40.29876349 59.57350768 37 61 C36.01 60.67 35.02 60.34 34 60 C34.52400391 59.32904297 34.52400391 59.32904297 35.05859375 58.64453125 C38.81124987 53.82764181 38.81124987 53.82764181 40 48 C37.08734082 39.4153203 31.91752753 34.90498463 24.875 29.6875 C23.34444199 28.53596671 21.8144914 27.38362561 20.28515625 26.23046875 C19.54797363 25.67665527 18.81079102 25.1228418 18.05126953 24.55224609 C14.65096466 21.97915179 11.31811425 19.32855738 8.02734375 16.6171875 C6.06420991 14.99475805 6.06420991 14.99475805 4.06640625 13.7578125 C2.375 12.625 2.375 12.625 0 10 C-0.48241395 6.60737149 -0.35653453 3.40028302 0 0 Z " fill="#B7ACB2" transform="translate(0,416)"/>
<path d="M0 0 C7.59 0 15.18 0 23 0 C23 11.22 23 22.44 23 34 C12.41692626 24.92879393 3.84482468 16.38963251 2 2 C1.34 1.34 0.68 0.68 0 0 Z " fill="#AB9EA5" transform="translate(367,0)"/>
<path d="M0 0 C3.0605022 2.27909738 4.59842441 3.92913175 5.9375 7.5 C6.04658593 11.86343732 4.78703349 14.16799317 1.8125 17.3125 C-1.80124338 19.48074603 -3.84639617 19.59337198 -8 19 C-10.94855414 17.46162393 -12.54706386 16.3392371 -13.6328125 13.12890625 C-14.26813494 9.55352782 -14.21695113 7.4989876 -12.75 4.125 C-9.18858751 -0.19957231 -5.36255662 -1.02442602 0 0 Z " fill="#AC9FA6" transform="translate(22,86)"/>
<path d="M0 0 C0.86818359 -0.01224609 1.73636719 -0.02449219 2.63085938 -0.03710938 C7.8213824 -0.04887927 12.18889802 0.33799725 17.0625 2.1875 C17.5575 3.1775 17.5575 3.1775 18.0625 4.1875 C17.010625 4.0225 15.95875 3.8575 14.875 3.6875 C-3.84137147 1.4585801 -20.62203421 6.39959546 -38.125 12.3125 C-40.6042883 13.14094217 -43.08452715 13.96640276 -45.56575012 14.78903198 C-47.0918774 15.29592938 -48.61677382 15.80655357 -50.1401825 16.32156372 C-55.55321147 18.1330433 -60.31253173 19.32016852 -66.01953125 19.28515625 C-66.95087891 19.28193359 -67.88222656 19.27871094 -68.84179688 19.27539062 C-69.80150391 19.26701172 -70.76121094 19.25863281 -71.75 19.25 C-72.72904297 19.24548828 -73.70808594 19.24097656 -74.71679688 19.23632812 C-77.12376111 19.22458684 -79.53059857 19.20816419 -81.9375 19.1875 C-82.2675 18.5275 -82.5975 17.8675 -82.9375 17.1875 C-82.00292969 17.17332031 -81.06835938 17.15914062 -80.10546875 17.14453125 C-61.57299366 16.47161508 -44.40129236 10.19555566 -26.87890625 4.57836914 C-25.86314262 4.25495293 -25.86314262 4.25495293 -24.82685852 3.92500305 C-22.96849271 3.33288691 -21.11151851 2.73640825 -19.25463867 2.13964844 C-12.77896288 0.28087641 -6.68223242 0.00493883 0 0 Z " fill="#BBB1B6" transform="translate(359.9375,721.8125)"/>
<path d="M0 0 C0.33 0 0.66 0 1 0 C1 52.8 1 105.6 1 160 C0.67 160 0.34 160 0 160 C0 107.2 0 54.4 0 0 Z " fill="#FFFFFF" transform="translate(0,127)"/>
<path d="M0 0 C-0.33 0.99 -0.66 1.98 -1 3 C-2.77832031 3.87548828 -2.77832031 3.87548828 -5.078125 4.5703125 C-6.32529297 4.95509766 -6.32529297 4.95509766 -7.59765625 5.34765625 C-8.47292969 5.60417969 -9.34820312 5.86070312 -10.25 6.125 C-11.10980469 6.38925781 -11.96960938 6.65351562 -12.85546875 6.92578125 C-18.63514705 8.68016742 -24.00048144 10.13496637 -30.08203125 10.09765625 C-31.01337891 10.09443359 -31.94472656 10.09121094 -32.90429688 10.08789062 C-33.86400391 10.07951172 -34.82371094 10.07113281 -35.8125 10.0625 C-37.28106445 10.05573242 -37.28106445 10.05573242 -38.77929688 10.04882812 C-41.18626111 10.03708684 -43.59309857 10.02066419 -46 10 C-46.33 9.34 -46.66 8.68 -47 8 C-46.06542969 7.98582031 -45.13085938 7.97164062 -44.16796875 7.95703125 C-30.46030969 7.45930467 -17.78061053 4.22370792 -4.94311523 -0.53369141 C-3 -1 -3 -1 0 0 Z " fill="#BCB3B8" transform="translate(324,731)"/>
<path d="M0 0 C0 0.99 0 1.98 0 3 C-2.12392506 3.6700834 -4.24917524 4.33596797 -6.375 5 C-7.55835938 5.37125 -8.74171875 5.7425 -9.9609375 6.125 C-13 7 -13 7 -15 7 C-14.80078125 5.109375 -14.80078125 5.109375 -14 3 C-11.85546875 1.953125 -11.85546875 1.953125 -9.1875 1.25 C-7.87845703 0.88648438 -7.87845703 0.88648438 -6.54296875 0.515625 C-4 0 -4 0 0 0 Z " fill="#B8AFB4" transform="translate(338,726)"/>
<path d="M0 0 C0.66 0.33 1.32 0.66 2 1 C-3.66001228 6.86878323 -9.26695568 12.37338295 -16 17 C-14.71638278 10.907338 -11.66090653 8.61255169 -6.875 5.125 C-6.21628906 4.62742187 -5.55757812 4.12984375 -4.87890625 3.6171875 C-3.26211429 2.39873559 -1.63230406 1.19759123 0 0 Z " fill="#BBB2B7" transform="translate(182,692)"/>
<path d="M0 0 C1.4540625 0.0309375 1.4540625 0.0309375 2.9375 0.0625 C3.0625 2.4375 3.0625 2.4375 2.9375 5.0625 C2.2775 5.7225 1.6175 6.3825 0.9375 7.0625 C-1.6875 6.6875 -1.6875 6.6875 -4.0625 6.0625 C-4.105221 4.39638095 -4.10313832 2.72867115 -4.0625 1.0625 C-3.0625 0.0625 -3.0625 0.0625 0 0 Z " fill="#B0A5AB" transform="translate(268.0625,99.9375)"/>
<path d="M0 0 C2.31 0.33 4.62 0.66 7 1 C7.5625 2.9375 7.5625 2.9375 8 5 C7 6 7 6 4.625 6.25 C2 6 2 6 0.1875 4.5 C-0.204375 4.005 -0.59625 3.51 -1 3 C-0.67 2.01 -0.34 1.02 0 0 Z " fill="#AEA1A8" transform="translate(35,829)"/>
<path d="M0 0 C0.66 0.33 1.32 0.66 2 1 C-2.95 5.95 -7.9 10.9 -13 16 C-13.33 15.34 -13.66 14.68 -14 14 C-9.67106815 8.81580806 -5.23435005 4.27293882 0 0 Z " fill="#BDB5BA" transform="translate(14,496)"/>
<path d="M0 0 C-0.33 0.99 -0.66 1.98 -1 3 C-3.31 3.33 -5.62 3.66 -8 4 C-8 3.34 -8 2.68 -8 2 C-9.32 1.67 -10.64 1.34 -12 1 C-10.56496445 0.63597631 -9.12683494 0.28413409 -7.6875 -0.0625 C-6.88699219 -0.25972656 -6.08648437 -0.45695313 -5.26171875 -0.66015625 C-3 -1 -3 -1 0 0 Z " fill="#C9C0C5" transform="translate(305,737)"/>
<path d="M0 0 C-2 3 -2 3 -3.9453125 3.51171875 C-4.66460937 3.56972656 -5.38390625 3.62773438 -6.125 3.6875 C-8.043125 3.8421875 -8.043125 3.8421875 -10 4 C-7.10257116 -0.27715685 -5.06635533 -1.57231717 0 0 Z " fill="#BAAFB5" transform="translate(313,735)"/>
<path d="M0 0 C-2 3 -2 3 -4.625 3.6875 C-5.800625 3.8421875 -5.800625 3.8421875 -7 4 C-6.6875 2.0625 -6.6875 2.0625 -6 0 C-3 -1 -3 -1 0 0 Z " fill="#AEA2A7" transform="translate(330,729)"/>
<path d="M0 0 C2.64465038 3.1254959 3.84414715 6.08788267 5 10 C0.07692308 5.69230769 0.07692308 5.69230769 -0.3125 2.1875 C-0.209375 1.465625 -0.10625 0.74375 0 0 Z " fill="#C8BFC5" transform="translate(61,396)"/>
</svg>
