<svg xmlns="http://www.w3.org/2000/svg" xmlns:xlink="http://www.w3.org/1999/xlink" viewBox="0,0,256,256" width="48px" height="48px" fill-rule="nonzero"><g fill-opacity="0" fill="#dddddd" fill-rule="nonzero" stroke="none" stroke-width="1" stroke-linecap="butt" stroke-linejoin="miter" stroke-miterlimit="10" stroke-dasharray="" stroke-dashoffset="0" font-family="none" font-weight="none" font-size="none" text-anchor="none" style="mix-blend-mode: normal"><path d="M0,256v-256h256v256z" id="bgRectangle"></path></g><g fill="#000000" fill-rule="nonzero" stroke="none" stroke-width="1" stroke-linecap="butt" stroke-linejoin="miter" stroke-miterlimit="10" stroke-dasharray="" stroke-dashoffset="0" font-family="none" font-weight="none" font-size="none" text-anchor="none" style="mix-blend-mode: normal"><g transform="scale(5.33333,5.33333)"><path d="M24,4c-3.28112,0 -6.38885,0.79329 -9.125,2.19922c-0.48829,0.23831 -0.80955,0.72203 -0.83984,1.26453c-0.03029,0.5425 0.23513,1.05897 0.69386,1.35016c0.45873,0.29119 1.03905,0.31157 1.51708,0.05328c2.32385,-1.19408 4.95502,-1.86719 7.75391,-1.86719c9.40629,0 17,7.59371 17,17c0,6.56342 -3.70723,12.23839 -9.13477,15.07617c-0.48313,0.24383 -0.79748,0.72897 -0.82263,1.26956c-0.02514,0.54059 0.24283,1.05281 0.70124,1.34043c0.45841,0.28762 1.03621,0.30604 1.51201,0.04821c6.38847,-3.34021 10.74414,-10.0398 10.74414,-17.73437c0,-11.02771 -8.97229,-20 -20,-20zM9.73047,10.68359c-0.44141,0.01042 -0.85581,0.21476 -1.13281,0.55859c-2.86921,3.46034 -4.59766,7.91582 -4.59766,12.75781c0,11.02771 8.97229,20 20,20c0.28673,0 0.56731,-0.007 0.84375,-0.01758c0.53883,-0.01567 1.02784,-0.31923 1.28093,-0.79519c0.25309,-0.47595 0.23136,-1.05111 -0.05693,-1.50661c-0.28829,-0.4555 -0.7988,-0.7213 -1.33728,-0.69626c-0.24556,0.00941 -0.4892,0.01563 -0.73047,0.01563c-9.40629,0 -17,-7.59371 -17,-17c0,-4.13 1.46546,-7.90009 3.90625,-10.84375c0.3834,-0.45 0.46675,-1.08321 0.21288,-1.61711c-0.25387,-0.53389 -0.79763,-0.8689 -1.38866,-0.85555zM26.9707,13.98633c-0.38956,0.01135 -0.75941,0.17386 -1.03125,0.45313l-7.29297,7.29297c-0.96365,0.96333 -0.96274,2.57242 0,3.53516l7.29297,7.29297c0.37623,0.39185 0.9349,0.54969 1.46055,0.41265c0.52565,-0.13704 0.93616,-0.54754 1.07319,-1.07319c0.13704,-0.52565 -0.0208,-1.08432 -0.41265,-1.46055l-6.93945,-6.93945l6.93945,-6.93945c0.4429,-0.43135 0.57582,-1.09023 0.33479,-1.65955c-0.24103,-0.56932 -0.80665,-0.93247 -1.42463,-0.91467z"></path></g></g></svg>