<svg xmlns="http://www.w3.org/2000/svg" xmlns:xlink="http://www.w3.org/1999/xlink" viewBox="0,0,256,256" width="48px" height="48px" fill-rule="nonzero"><g fill-opacity="0" fill="#dddddd" fill-rule="nonzero" stroke="none" stroke-width="1" stroke-linecap="butt" stroke-linejoin="miter" stroke-miterlimit="10" stroke-dasharray="" stroke-dashoffset="0" font-family="none" font-weight="none" font-size="none" text-anchor="none" style="mix-blend-mode: normal"><path d="M0,256v-256h256v256z" id="bgRectangle"></path></g><g fill="none" fill-rule="nonzero" stroke="none" stroke-width="none" stroke-linecap="none" stroke-linejoin="none" stroke-miterlimit="10" stroke-dasharray="" stroke-dashoffset="0" font-family="none" font-weight="none" font-size="none" text-anchor="none" style="mix-blend-mode: normal"><g transform="scale(5.33333,5.33333)"><path d="M29.3,36.3c-1.7,0.5 -3.5,0.7 -5.3,0.7c-9.5,0 -17.6,-7.3 -21.2,-11c-1.1,-1.2 -1.1,-3 0,-4.2c1.5,-1.6 3.9,-3.8 6.8,-5.9" fill="none" stroke="#000000" stroke-width="3" stroke-linecap="round" stroke-linejoin="miter"></path><path d="M18.7,11.6c1.7,-0.5 3.5,-0.7 5.3,-0.7c9.5,0 17.6,7.3 21.2,11c1.1,1.2 1.1,3 0,4.2c-1.4,1.5 -3.6,3.5 -6.3,5.5" fill="none" stroke="#000000" stroke-width="3" stroke-linecap="round" stroke-linejoin="miter"></path><path d="M24,15c-2.5,0 -4.6,1.9 -4.9,4.3c0.4,0.2 0.7,0.4 0.9,0.7c1.1,1.3 2.3,2.6 3.7,3.7c0.4,0.3 0.7,0.7 0.8,1.2c2.5,-0.2 4.5,-2.4 4.5,-5c0,-2.7 -2.2,-4.9 -5,-4.9z" fill="#000000" stroke="none" stroke-width="1" stroke-linecap="butt" stroke-linejoin="miter"></path><path d="M5.5,5.5l37,37" fill="none" stroke="#000000" stroke-width="3" stroke-linecap="round" stroke-linejoin="miter"></path><path d="M33.6,25.2c1.5,-2 2.4,-4.5 2.4,-7.2c0,-1 -0.1,-2 -0.4,-2.9" fill="none" stroke="#000000" stroke-width="3" stroke-linecap="round" stroke-linejoin="round"></path><path d="M12.2,20c1,5.7 5.9,10 11.8,10" fill="none" stroke="#000000" stroke-width="3" stroke-linecap="round" stroke-linejoin="round"></path></g></g></svg>