<svg xmlns="http://www.w3.org/2000/svg"  viewBox="0 0 48 48" width="48px" height="48px"><path fill="none" stroke="#000" stroke-linecap="round" stroke-linejoin="round" stroke-width="3" d="M35.5,38.5c-3.2,2.5-7.2,4-11.5,4C13.8,42.5,5.5,34.2,5.5,24c0-4.5,1.6-8.7,4.3-11.9"/><path fill="none" stroke="#000" stroke-linecap="round" stroke-linejoin="round" stroke-width="3" d="M21,5.7c1-0.2,2-0.2,3-0.2c10.2,0,18.5,8.3,18.5,18.5c0,2.5-0.5,4.9-1.4,7"/><path fill="none" stroke="#000" stroke-linecap="round" stroke-linejoin="round" stroke-miterlimit="10" stroke-width="3" d="M31.5,23.5v9c0,1.1-0.9,2-2,2h-11c-1.1,0-2-0.9-2-2v-9c0-1.1,0.9-2,2-2h11C30.6,21.5,31.5,22.4,31.5,23.5z"/><path fill="none" stroke="#000" stroke-linecap="round" stroke-linejoin="round" stroke-miterlimit="10" stroke-width="3" d="M20.5,21.1V17c0-1.9,1.6-3.5,3.5-3.5h0c1.9,0,3.5,1.6,3.5,3.5v4.3"/><circle cx="24" cy="28" r="2"/></svg>