<svg xmlns="http://www.w3.org/2000/svg" xmlns:xlink="http://www.w3.org/1999/xlink" viewBox="0,0,256,256" width="48px" height="48px" fill-rule="nonzero"><g fill-opacity="0" fill="#dddddd" fill-rule="nonzero" stroke="none" stroke-width="1" stroke-linecap="butt" stroke-linejoin="miter" stroke-miterlimit="10" stroke-dasharray="" stroke-dashoffset="0" font-family="none" font-weight="none" font-size="none" text-anchor="none" style="mix-blend-mode: normal"><path d="M0,256v-256h256v256z" id="bgRectangle"></path></g><g fill="#000000" fill-rule="nonzero" stroke="none" stroke-width="1" stroke-linecap="butt" stroke-linejoin="miter" stroke-miterlimit="10" stroke-dasharray="" stroke-dashoffset="0" font-family="none" font-weight="none" font-size="none" text-anchor="none" style="mix-blend-mode: normal"><g transform="scale(5.33333,5.33333)"><path d="M24,2.5c-2.21695,0 -4.09557,1.4856 -4.74219,3.5h-7.75781c-3.01818,0 -5.5,2.48182 -5.5,5.5v7.5h-1c-1.36359,0 -2.5,1.13641 -2.5,2.5v5c0,1.36359 1.13641,2.5 2.5,2.5h1v7.5c0,3.01818 2.48182,5.5 5.5,5.5h7.75781c0.64662,2.0144 2.52524,3.5 4.74219,3.5c2.21695,0 4.09557,-1.4856 4.74219,-3.5h7.75781c3.01818,0 5.5,-2.48182 5.5,-5.5v-7.5h1c1.36359,0 2.5,-1.13641 2.5,-2.5v-1.58594c0.00765,-0.54095 -0.27656,-1.04412 -0.74381,-1.31683c-0.46725,-0.27271 -1.04514,-0.27271 -1.51238,0c-0.46725,0.27271 -0.75146,0.77588 -0.74381,1.31683v1.08594h-1.75391c-0.08901,-0.01526 -0.17922,-0.02245 -0.26953,-0.02148c-0.07334,0.0018 -0.14646,0.00898 -0.21875,0.02148h-1.75781v-4h1.75391c0.48552,0.0805 0.97964,-0.08226 1.32227,-0.43555c0.00196,-0.0013 0.00391,-0.0026 0.00586,-0.00391c0.00327,-0.00324 0.00653,-0.0065 0.00977,-0.00977c0.00393,-0.00453 0.00784,-0.00909 0.01172,-0.01367c0.32515,-0.34005 0.47194,-0.81295 0.39648,-1.27734v-8.75977c0,-3.01818 -2.48182,-5.5 -5.5,-5.5h-7.75781c-0.64662,-2.0144 -2.52524,-3.5 -4.74219,-3.5zM24,5.5c1.01224,0 1.90805,0.86403 1.98438,1.86523c-0.00732,0.08907 -0.00667,0.17862 0.00195,0.26758c-0.0748,0.98412 -0.95059,1.82032 -1.94336,1.84766c-0.02994,-0.0009 -0.0599,-0.0009 -0.08984,0c-0.99065,-0.02934 -1.86383,-0.86359 -1.93945,-1.8457c0.00785,-0.08837 0.00785,-0.17726 0,-0.26562c0.07417,-1.00295 0.97271,-1.86914 1.98633,-1.86914zM11.5,9h7.74609c0.49915,1.51299 1.7245,2.697 3.25391,3.19336v6.80664h-1c-1.36359,0 -2.5,1.13641 -2.5,2.5v5c0,1.36359 1.13641,2.5 2.5,2.5h1v7.75391c-0.0805,0.48552 0.08226,0.97964 0.43555,1.32227c0.00259,0.00261 0.0052,0.00522 0.00781,0.00781c0.00645,0.00657 0.01296,0.01308 0.01953,0.01953c0.29084,0.27855 0.68146,0.42846 1.08398,0.41602c0.99066,0.02936 1.86383,0.86359 1.93945,1.8457c-0.00785,0.08837 -0.00785,0.17726 0,0.26563c-0.07417,1.00295 -0.97271,1.86914 -1.98633,1.86914c-1.01224,0 -1.90805,-0.86402 -1.98437,-1.86523c0.04008,-0.45105 -0.12572,-0.89607 -0.45117,-1.21094c-0.0013,-0.00196 -0.0026,-0.00391 -0.00391,-0.00586c-0.00324,-0.00327 -0.0065,-0.00653 -0.00977,-0.00977c-0.00453,-0.00393 -0.00909,-0.00784 -0.01367,-0.01172c-0.34005,-0.32515 -0.81295,-0.47194 -1.27734,-0.39648h-8.75977c-1.38182,0 -2.5,-1.11818 -2.5,-2.5v-7.5h1c0.54095,0.00765 1.04412,-0.27656 1.31683,-0.74381c0.27271,-0.46725 0.27271,-1.04514 0,-1.51238c-0.27271,-0.46725 -0.77588,-0.75146 -1.31683,-0.74381h-2.25391c-0.08901,-0.01526 -0.17922,-0.02245 -0.26953,-0.02148c-0.07334,0.0018 -0.14646,0.00898 -0.21875,0.02148h-1.75781v-4h1.75391c0.16103,0.02645 0.3253,0.02645 0.48633,0h1.75977c-0.00272,0.5403 0.28532,1.04033 0.75408,1.30903c0.46876,0.26871 1.0458,0.26457 1.51066,-0.01082c0.46486,-0.27539 0.74571,-0.77949 0.73526,-1.3197v-0.47852c0,-1.36359 -1.13641,-2.5 -2.5,-2.5h-1v-7.5c0,-1.38182 1.11818,-2.5 2.5,-2.5zM28.75391,9h7.74609c1.38182,0 2.5,1.11818 2.5,2.5v7.5h-1c-1.36359,0 -2.5,1.13641 -2.5,2.5v5c0,1.36359 1.13641,2.5 2.5,2.5h1v7.5c0,1.38182 -1.11818,2.5 -2.5,2.5h-7.74609c-0.49915,-1.51299 -1.7245,-2.697 -3.25391,-3.19336v-6.80664h1c1.36359,0 2.5,-1.13641 2.5,-2.5v-5c0,-1.36359 -1.13641,-2.5 -2.5,-2.5h-1v-6.80664c1.5294,-0.49636 2.75476,-1.68037 3.25391,-3.19336zM22,22h4v4h-1.75391c-0.16103,-0.02645 -0.3253,-0.02645 -0.48633,0h-1.75977z"></path></g></g></svg>