<svg xmlns="http://www.w3.org/2000/svg"  viewBox="0 0 48 48" width="48px" height="48px"><path fill="none" stroke="#000" stroke-linecap="round" stroke-linejoin="round" stroke-width="3" d="M25.5,33.5l-10.4,7.8c-0.7,0.5-1.6,0-1.6-0.8v-7h-3c-2.8,0-5-2.2-5-5v-17c0-2.8,2.2-5,5-5h1.4"/><path fill="none" stroke="#000" stroke-linecap="round" stroke-linejoin="round" stroke-width="3" d="M20.1,6.5h17.4c2.8,0,5,2.2,5,5v17c0,2.8-2.2,5-5,5h-6.2"/><line x1="11.5" x2="16.5" y1="17.5" y2="22.5" fill="none" stroke="#000" stroke-linecap="round" stroke-linejoin="round" stroke-width="3"/><line x1="16.5" x2="11.5" y1="17.5" y2="22.5" fill="none" stroke="#000" stroke-linecap="round" stroke-linejoin="round" stroke-width="3"/><line x1="31.5" x2="36.5" y1="17.5" y2="22.5" fill="none" stroke="#000" stroke-linecap="round" stroke-linejoin="round" stroke-width="3"/><line x1="36.5" x2="31.5" y1="17.5" y2="22.5" fill="none" stroke="#000" stroke-linecap="round" stroke-linejoin="round" stroke-width="3"/><line x1="21.5" x2="26.5" y1="17.5" y2="22.5" fill="none" stroke="#000" stroke-linecap="round" stroke-linejoin="round" stroke-width="3"/><line x1="26.5" x2="21.5" y1="17.5" y2="22.5" fill="none" stroke="#000" stroke-linecap="round" stroke-linejoin="round" stroke-width="3"/></svg>