<svg xmlns="http://www.w3.org/2000/svg" xmlns:xlink="http://www.w3.org/1999/xlink" viewBox="0,0,256,256" width="48px" height="48px" fill-rule="nonzero"><g fill-opacity="0" fill="#dddddd" fill-rule="nonzero" stroke="none" stroke-width="1" stroke-linecap="butt" stroke-linejoin="miter" stroke-miterlimit="10" stroke-dasharray="" stroke-dashoffset="0" font-family="none" font-weight="none" font-size="none" text-anchor="none" style="mix-blend-mode: normal"><path d="M0,256v-256h256v256z" id="bgRectangle"></path></g><g fill="#000000" fill-rule="nonzero" stroke="none" stroke-width="1" stroke-linecap="butt" stroke-linejoin="miter" stroke-miterlimit="10" stroke-dasharray="" stroke-dashoffset="0" font-family="none" font-weight="none" font-size="none" text-anchor="none" style="mix-blend-mode: normal"><g transform="scale(5.33333,5.33333)"><path d="M13.39258,8.40234c-1.2828,0 -2.56509,0.48501 -3.53516,1.45508c-1.94013,1.94013 -1.94013,5.13018 0,7.07031l7.07227,7.07227l-7.07227,7.07227c-1.94013,1.94013 -1.94013,5.13018 0,7.07031c1.86478,1.86478 4.88017,1.9437 6.83789,0.2168c0.41016,-0.35225 0.59905,-0.89796 0.49441,-1.42839c-0.10464,-0.53044 -0.4866,-0.96353 -0.99981,-1.13364c-0.5132,-0.1701 -1.07823,-0.0509 -1.47898,0.31203c-0.79028,0.6971 -1.9692,0.67533 -2.73242,-0.08789c-0.79387,-0.79387 -0.79387,-2.03426 0,-2.82812l8.13281,-8.13281c0.58555,-0.58579 0.58555,-1.5353 0,-2.12109l-8.13281,-8.13281c-0.79387,-0.79387 -0.79387,-2.03426 0,-2.82812c0.79387,-0.79387 2.03426,-0.79387 2.82813,0l8.13281,8.13281c0.58579,0.58555 1.5353,0.58555 2.12109,0l1.48242,-1.48242c0.39185,-0.37623 0.54969,-0.9349 0.41265,-1.46055c-0.13704,-0.52565 -0.54754,-0.93616 -1.07319,-1.07319c-0.52565,-0.13704 -1.08432,0.0208 -1.46055,0.41265l-0.42187,0.42188l-7.07227,-7.07227c-0.97007,-0.97007 -2.25236,-1.45508 -3.53516,-1.45508zM34.60742,8.40234c-1.2828,0 -2.56509,0.48501 -3.53516,1.45508l-2.8418,2.8418c-0.39186,0.37622 -0.54971,0.9349 -0.41268,1.46056c0.13704,0.52566 0.54754,0.93617 1.07321,1.07321c0.52566,0.13704 1.08434,-0.02082 1.46056,-0.41268l2.8418,-2.8418c0.79387,-0.79387 2.03426,-0.79387 2.82813,0c0.79387,0.79387 0.79387,2.03426 0,2.82813l-8.13281,8.13281c-0.58555,0.58579 -0.58555,1.5353 0,2.12109l8.13281,8.13281c0.79387,0.79387 0.79387,2.03426 0,2.82813c-0.79387,0.79387 -2.03426,0.79387 -2.82812,0l-8.13281,-8.13281c-0.58579,-0.58555 -1.5353,-0.58555 -2.12109,0l-3.73828,3.73828c-0.39185,0.37623 -0.54969,0.9349 -0.41265,1.46055c0.13704,0.52565 0.54754,0.93616 1.07319,1.07319c0.52565,0.13704 1.08432,-0.0208 1.46055,-0.41265l2.67773,-2.67773l7.07227,7.07227c1.94013,1.94013 5.13018,1.94013 7.07031,0c1.94013,-1.94013 1.94013,-5.13018 0,-7.07031l-7.07227,-7.07227l7.07227,-7.07227c1.94013,-1.94013 1.94013,-5.13018 0,-7.07031c-0.97007,-0.97007 -2.25236,-1.45508 -3.53516,-1.45508z"></path></g></g></svg>