<svg xmlns="http://www.w3.org/2000/svg" xmlns:xlink="http://www.w3.org/1999/xlink" viewBox="0,0,256,256" width="48px" height="48px" fill-rule="nonzero"><g fill-opacity="0" fill="#dddddd" fill-rule="nonzero" stroke="none" stroke-width="1" stroke-linecap="butt" stroke-linejoin="miter" stroke-miterlimit="10" stroke-dasharray="" stroke-dashoffset="0" font-family="none" font-weight="none" font-size="none" text-anchor="none" style="mix-blend-mode: normal"><path d="M0,256v-256h256v256z" id="bgRectangle"></path></g><g fill="none" fill-rule="nonzero" stroke="#000000" stroke-width="3" stroke-linecap="round" stroke-linejoin="round" stroke-miterlimit="10" stroke-dasharray="" stroke-dashoffset="0" font-family="none" font-weight="none" font-size="none" text-anchor="none" style="mix-blend-mode: normal"><g transform="scale(5.33333,5.33333)"><path d="M34.8,16.6h3.7c2.2,0 4,1.8 4,4v19.8c0,1.7 -1.9,2.6 -3.2,1.6l-7.2,-5.4h-12.6c-1.2,0 -2.3,-0.5 -3,-1.4"></path><path d="M5.5,28.1v3c0,1.7 1.9,2.6 3.2,1.6l7.9,-6.1h13.9c2.2,0 4,-1.8 4,-4v-13c0,-2.2 -1.8,-4 -4,-4h-7.2"></path><path d="M15.9,5.6h-6.4c-2.2,0 -4,1.8 -4,4v12.7"></path></g></g></svg>