<svg xmlns="http://www.w3.org/2000/svg" xmlns:xlink="http://www.w3.org/1999/xlink" viewBox="0,0,256,256" width="48px" height="48px" fill-rule="nonzero"><g fill-opacity="0" fill="#dddddd" fill-rule="nonzero" stroke="none" stroke-width="1" stroke-linecap="butt" stroke-linejoin="miter" stroke-miterlimit="10" stroke-dasharray="" stroke-dashoffset="0" font-family="none" font-weight="none" font-size="none" text-anchor="none" style="mix-blend-mode: normal"><path d="M0,256v-256h256v256z" id="bgRectangle"></path></g><g fill="#000000" fill-rule="nonzero" stroke="none" stroke-width="1" stroke-linecap="butt" stroke-linejoin="miter" stroke-miterlimit="10" stroke-dasharray="" stroke-dashoffset="0" font-family="none" font-weight="none" font-size="none" text-anchor="none" style="mix-blend-mode: normal"><g transform="scale(5.33333,5.33333)"><path d="M28.80664,2.42383c-0.64189,0.00006 -1.28443,0.24207 -1.76562,0.72266c-0.0011,0.0011 -0.00281,0.00086 -0.00391,0.00195l-9.58984,9.54297c-0.00065,0.00065 -0.0013,0.0013 -0.00195,0.00195c-0.03622,0.03343 -0.07076,0.06863 -0.10352,0.10547l-3.6543,3.65234c-1.40477,1.40477 -1.74339,3.59265 -0.77148,5.34961c0.54108,0.9789 1.14377,2.22049 1.44726,3.21875c0.15175,0.49913 0.21985,0.9356 0.2168,1.17969c-0.00124,0.09997 -0.00732,0.1339 -0.00781,0.15039c-0.15367,0.12156 -2.44387,1.93202 -5.09961,4.08398c-0.43151,0.3325 -0.64886,0.8728 -0.56781,1.4115c0.08105,0.53869 0.44777,0.99111 0.95802,1.18192c0.51025,0.1908 1.08384,0.09 1.49846,-0.26334c2.72761,-2.2102 5.24219,-4.19727 5.24219,-4.19727c0.0452,-0.03653 0.08824,-0.07566 0.12891,-0.11719c0.6405,-0.63993 0.83861,-1.48747 0.84766,-2.21094c0.009,-0.72347 -0.14028,-1.40968 -0.34766,-2.0918c-0.41476,-1.36424 -1.09549,-2.71877 -1.69141,-3.79687c-0.3181,-0.57504 -0.2097,-1.29811 0.26953,-1.77734l3.75195,-3.75586l0.00391,-0.00195c0.00791,-0.00837 0.01572,-0.01684 0.02344,-0.02539l9.21484,-9.16797l2.72656,2.72656l-2.0918,2.08984c-0.42875,0.42905 -0.55694,1.07406 -0.32484,1.63445c0.23211,0.56039 0.77883,0.92586 1.38538,0.9261h5.67969l6.19141,6.19531l-5.50977,5.54688c-0.40084,0.3751 -0.56477,0.93919 -0.42742,1.4707c0.13736,0.53151 0.55407,0.94554 1.08646,1.07947c0.53239,0.13393 1.09541,-0.03364 1.46791,-0.43689l5.85742,-5.89258c0.96384,-0.96384 0.96355,-2.57105 0.00195,-3.53516c-0.00065,0 -0.0013,0 -0.00195,0l-6.68945,-6.69336c0,-0.00065 0,-0.0013 0,-0.00195c-0.46821,-0.46816 -1.10635,-0.73242 -1.76758,-0.73242h-2.33398c0.86912,-0.97102 0.8834,-2.48574 -0.04883,-3.41797l-3.43164,-3.43359c-0.48169,-0.48169 -1.12422,-0.72272 -1.76758,-0.72266zM22.27344,16.02539c-0.61064,0.00015 -1.16026,0.37042 -1.38978,0.93629c-0.22952,0.56587 -0.09314,1.21439 0.34486,1.63988l10.89648,10.89648l-2.62695,2.62891c-0.49096,0.49096 -1.22945,0.58655 -1.81055,0.23828c0,-0.00065 0,-0.0013 0,-0.00195c-1.05552,-0.63236 -2.3769,-1.33979 -3.75781,-1.74805c-0.69046,-0.20413 -1.40109,-0.34082 -2.1543,-0.29492c-0.7532,0.0459 -1.59583,0.32044 -2.22266,0.94727c-0.04086,0.04072 -0.07933,0.08376 -0.11523,0.12891c0,0 -1.93323,2.44474 -4.10547,5.12695c-2.17224,2.68221 -4.68251,5.69308 -5.45898,6.46875c-1.35735,1.35735 -3.50788,1.35735 -4.86523,0c-1.35735,-1.35735 -1.35735,-3.50788 0,-4.86523c0.38738,-0.38738 1.37027,-1.24709 2.54883,-2.23633c0.41729,-0.34239 0.61846,-0.88256 0.52679,-1.4145c-0.09167,-0.53193 -0.46205,-0.97361 -0.96987,-1.15657c-0.50782,-0.18296 -1.07479,-0.079 -1.48465,0.27224c-1.19944,1.00676 -2.16556,1.83744 -2.74219,2.41406c-2.50265,2.50265 -2.50265,6.60478 0,9.10742c2.50225,2.50225 6.60271,2.50145 9.10547,0c1.15352,-1.15233 3.48466,-4.00288 5.66992,-6.70117c2.13145,-2.63185 3.93313,-4.91075 4.02539,-5.02734c0.02278,-0.02352 0.04197,-0.05645 0.26953,-0.07031c0.23917,-0.01457 0.6495,0.03774 1.12305,0.17773c0.94709,0.27999 2.12697,0.88367 3.06445,1.44531c1.7649,1.05774 4.03157,0.75358 5.47461,-0.68945l3.68945,-3.68945c0.58555,-0.58579 0.58555,-1.5353 0,-2.12109l-11.95703,-11.95898c-0.28328,-0.29067 -0.67225,-0.45415 -1.07812,-0.45312zM7.49219,39c-0.828,0 -1.5,0.672 -1.5,1.5c0,0.828 0.672,1.5 1.5,1.5c0.828,0 1.5,-0.672 1.5,-1.5c0,-0.828 -0.672,-1.5 -1.5,-1.5z"></path></g></g></svg>