<svg xmlns="http://www.w3.org/2000/svg" xmlns:xlink="http://www.w3.org/1999/xlink" viewBox="0,0,256,256" width="48px" height="48px" fill-rule="nonzero"><g fill-opacity="0" fill="#dddddd" fill-rule="nonzero" stroke="none" stroke-width="1" stroke-linecap="butt" stroke-linejoin="miter" stroke-miterlimit="10" stroke-dasharray="" stroke-dashoffset="0" font-family="none" font-weight="none" font-size="none" text-anchor="none" style="mix-blend-mode: normal"><path d="M0,256v-256h256v256z" id="bgRectangle"></path></g><g fill="#000000" fill-rule="nonzero" stroke="none" stroke-width="1" stroke-linecap="butt" stroke-linejoin="miter" stroke-miterlimit="10" stroke-dasharray="" stroke-dashoffset="0" font-family="none" font-weight="none" font-size="none" text-anchor="none" style="mix-blend-mode: normal"><g transform="scale(5.33333,5.33333)"><path d="M24,4c-11.02771,0 -20,8.97229 -20,20c0,6.41247 3.02915,12.13866 7.73242,15.79688c0.4215,0.3458 0.99743,0.4357 1.50426,0.2348c0.50683,-0.20089 0.86478,-0.66094 0.93492,-1.20161c0.07014,-0.54067 -0.15858,-1.07682 -0.59738,-1.40038c-4.00073,-3.11178 -6.57422,-7.96016 -6.57422,-13.42969c0,-9.40629 7.59371,-17 17,-17c0.54095,0.00765 1.04412,-0.27656 1.31683,-0.74381c0.27271,-0.46725 0.27271,-1.04514 0,-1.51238c-0.27271,-0.46725 -0.77588,-0.75146 -1.31683,-0.74381zM33.29883,6.4707c-0.692,-0.02566 -1.31165,0.42566 -1.4995,1.09217c-0.18785,0.66651 0.10492,1.37499 0.70848,1.71447c5.07655,2.94027 8.49219,8.42161 8.49219,14.72266c0,9.40629 -7.59371,17 -17,17c-0.92764,0 -1.83866,-0.07435 -2.72461,-0.2168c-0.53753,-0.10407 -1.08907,0.09297 -1.43897,0.51408c-0.34991,0.42111 -0.4426,0.99941 -0.24184,1.50878c0.20076,0.50938 0.66308,0.86893 1.2062,0.93808c1.04205,0.16755 2.11086,0.25586 3.19922,0.25586c11.02771,0 20,-8.97229 20,-20c0,-7.38696 -4.01483,-13.85862 -9.98828,-17.31836c-0.21617,-0.12901 -0.46133,-0.20155 -0.71289,-0.21094zM16.5,14c-2.4675,0 -4.5,2.0325 -4.5,4.5v11c0,2.4675 2.0325,4.5 4.5,4.5h8.07422c0.54095,0.00765 1.04412,-0.27656 1.31683,-0.74381c0.27271,-0.46725 0.27271,-1.04514 0,-1.51238c-0.27271,-0.46725 -0.77588,-0.75146 -1.31683,-0.74381h-8.07422c-0.8465,0 -1.5,-0.6535 -1.5,-1.5v-11c0,-0.8465 0.6535,-1.5 1.5,-1.5h15c0.8465,0 1.5,0.6535 1.5,1.5v0.04492l-8.36523,3.90234c-0.40223,0.18761 -0.86516,0.18703 -1.26758,0h-0.00195l-4.67969,-2.18359c-0.48568,-0.22694 -1.05555,-0.17749 -1.49488,0.12973c-0.43933,0.30722 -0.68134,0.82551 -0.63486,1.35957c0.04648,0.53407 0.37441,1.00275 0.86021,1.22945l4.68164,2.18359c1.20515,0.5621 2.59954,0.5621 3.80469,0l7.09766,-3.31055v7.64453c0,0.8465 -0.6535,1.5 -1.5,1.5h-0.79883c-0.54095,-0.00765 -1.04412,0.27656 -1.31683,0.74381c-0.27271,0.46725 -0.27271,1.04514 0,1.51238c0.27271,0.46725 0.77588,0.75146 1.31683,0.74381h0.79883c2.4675,0 4.5,-2.0325 4.5,-4.5v-9.75781c0.02841,-0.16677 0.02841,-0.33714 0,-0.50391v-0.73828c0,-2.4675 -2.0325,-4.5 -4.5,-4.5z"></path></g></g></svg>