<svg xmlns="http://www.w3.org/2000/svg" xmlns:xlink="http://www.w3.org/1999/xlink" viewBox="0,0,256,256" width="48px" height="48px" fill-rule="nonzero"><g fill-opacity="0" fill="#dddddd" fill-rule="nonzero" stroke="none" stroke-width="1" stroke-linecap="butt" stroke-linejoin="miter" stroke-miterlimit="10" stroke-dasharray="" stroke-dashoffset="0" font-family="none" font-weight="none" font-size="none" text-anchor="none" style="mix-blend-mode: normal"><path d="M0,256v-256h256v256z" id="bgRectangle"></path></g><g fill="#000000" fill-rule="nonzero" stroke="none" stroke-width="1" stroke-linecap="butt" stroke-linejoin="miter" stroke-miterlimit="10" stroke-dasharray="" stroke-dashoffset="0" font-family="none" font-weight="none" font-size="none" text-anchor="none" style="mix-blend-mode: normal"><g transform="scale(5.33333,5.33333)"><path d="M8.87695,7.19922c-2.86824,0.15702 -5.37695,2.4748 -5.37695,5.53906c0,0.27 0.00586,0.3008 0.00586,0.05664c-0.00006,0.00781 -0.00006,0.01562 0,0.02344c0.02203,1.39827 0.47839,2.66618 0.86328,3.81055c0.38489,1.14437 0.68693,2.18277 0.68945,2.69922c0.00275,0.74566 -0.65744,2.77162 -1.0918,3.79297c-0.36852,0.86741 -0.36834,1.85815 -0.00195,2.72461c0,0.00065 0,0.0013 0,0.00195c0.43451,1.02359 1.09714,3.0583 1.09375,3.80664c-0.00252,0.5213 -0.31006,1.56596 -0.69922,2.72461c-0.33363,0.99335 -0.6264,2.13251 -0.73633,3.32227c-0.00994,0.02605 -0.05072,0.07078 -0.05859,0.09375c-0.09724,0.28352 -0.08393,0.40167 -0.08594,0.50195c-0.00401,0.20057 0.01405,0.29727 0.0293,0.4043c0.0305,0.21404 0.07239,0.41337 0.11914,0.61914c0.04675,0.20578 0.09833,0.40733 0.14258,0.57422c0.04425,0.16689 -0.01247,0.09385 0.14648,0.47852c0.27905,0.6777 0.69093,1.28858 1.20508,1.80273c1.33012,1.33012 3.21489,1.85356 5,1.55469c0.01568,-0.00301 0.0313,-0.00626 0.04688,-0.00977c2.24518,-0.38822 4.4547,-1.44048 6.11719,-1.44727c2.16383,-0.0064 4.31522,0.38527 6.48242,1.18945c0.50243,0.18677 1.06634,0.09127 1.47926,-0.25051c0.41292,-0.34178 0.61211,-0.87791 0.52251,-1.40639c-0.08959,-0.52848 -0.45435,-0.969 -0.95685,-1.15559c-2.4788,-0.91981 -5.00099,-1.38451 -7.53516,-1.37695c-0.00065,0 -0.0013,0 -0.00195,0c-2.69933,0.0099 -5.12906,1.23453 -6.61914,1.49219c-0.01044,0.00184 -0.02085,0.0038 -0.03125,0.00586h-0.00195c-0.8424,0.14032 -1.81341,-0.14935 -2.38086,-0.7168c-0.21701,-0.21701 -0.39088,-0.47883 -0.51562,-0.75586c-0.01949,-0.05481 -0.04489,-0.12214 -0.05859,-0.17383c-0.03507,-0.13226 -0.07823,-0.3059 -0.11523,-0.46875c-0.02765,-0.12169 -0.04295,-0.20714 -0.05664,-0.2832v-0.00195c0.00228,-0.0312 0.00358,-0.06247 0.00391,-0.09375c0.00537,-0.72103 0.31953,-1.80126 0.70313,-2.94336c0.3836,-1.1421 0.84899,-2.32731 0.85547,-3.66602c0.00861,-1.90264 -0.84246,-3.8416 -1.33008,-4.99023c-0.05562,-0.13153 -0.05548,-0.25222 0,-0.38281h-0.00195c0.48743,-1.14617 1.34065,-3.08122 1.33203,-4.98242c-0.00648,-1.32855 -0.46459,-2.50554 -0.8457,-3.63867c-0.38111,-1.13313 -0.69801,-2.20562 -0.70898,-2.90234c-0.00142,-0.03544 -0.00391,-0.16823 -0.00391,-0.0332c0,-1.64059 1.5062,-2.7797 3.12305,-2.51172c0.01104,0.00273 0.02211,0.00533 0.0332,0.00781c1.49017,0.25767 3.92058,1.48228 6.61914,1.49219c0.54073,0.00947 1.04471,-0.27285 1.31906,-0.73891c0.27435,-0.46606 0.27661,-1.04372 0.00591,-1.51191c-0.2707,-0.46819 -0.77245,-0.75443 -1.31324,-0.74919c-1.66144,-0.0061 -3.87331,-1.06089 -6.11914,-1.44922c-0.01557,-0.0035 -0.0312,-0.00676 -0.04687,-0.00977c-0.4182,-0.06992 -0.83439,-0.09079 -1.24414,-0.06836zM10.16797,7.27734l0.08203,0.01758c0.0034,0.00079 -0.0096,-0.00298 -0.03906,-0.00977c-0.01428,-0.00281 -0.02861,-0.00542 -0.04297,-0.00781zM38.50391,7.20117c-0.20742,0.01132 -0.41545,0.03328 -0.625,0.06836c-0.01568,0.00301 -0.0313,0.00626 -0.04687,0.00977c-2.24592,0.38835 -4.45647,1.44117 -6.11914,1.44727c-2.16383,0.00645 -4.31522,-0.38527 -6.48242,-1.18945c-0.50544,-0.19944 -1.0792,-0.10997 -1.49993,0.23387c-0.42073,0.34384 -0.62263,0.88832 -0.52782,1.42334c0.09481,0.53502 0.47152,0.97696 0.98478,1.15529c2.4788,0.91981 5.00099,1.38451 7.53516,1.37695c2.69933,-0.0099 5.12906,-1.23453 6.61914,-1.49219c0.01044,-0.00184 0.02085,-0.0038 0.03125,-0.00586h0.00195c1.60167,-0.26694 3.0482,0.87964 3.11914,2.49805c-0.00003,0.02004 0,0.01627 0,0.04688c-0.01165,0.69649 -0.32805,1.76937 -0.70898,2.90234c-0.38094,1.13298 -0.83727,2.31094 -0.84375,3.63867c-0.0092,1.85503 0.46933,3.42837 1.28906,5.04297c0.05657,0.11121 0.06347,0.25683 0.00391,0.39844c-0.48973,1.16457 -1.30353,3.05348 -1.29492,4.91211c0.0058,1.33935 0.47175,2.52287 0.85547,3.66211c0.38324,1.1378 0.69576,2.2111 0.70117,2.91211c-0.00055,1.65981 -1.51408,2.79909 -3.11914,2.53125c-0.01104,-0.00273 -0.02211,-0.00533 -0.0332,-0.00781c-1.49116,-0.25772 -3.92058,-1.48228 -6.61914,-1.49219c-0.54073,-0.00946 -1.04469,0.27285 -1.31904,0.73891c-0.27435,0.46606 -0.2766,1.04371 -0.00591,1.51189c0.2707,0.46819 0.77244,0.75443 1.31323,0.74919c1.65854,0.0061 3.86463,1.05733 6.10742,1.44727c0.00195,0 0.00391,0 0.00586,0c0.002,0.00035 0.00376,0.00155 0.00586,0.00195c0.01558,0.00285 0.03121,0.00546 0.04688,0.00781c3.34486,0.56063 6.62126,-1.98082 6.61719,-5.49609c0.00001,-0.0026 0.00001,-0.00521 0,-0.00781c-0.0094,-1.41706 -0.4706,-2.69926 -0.85937,-3.85352c-0.38878,-1.15426 -0.69503,-2.1981 -0.69727,-2.71875c-0.0034,-0.73137 0.62428,-2.69694 1.06055,-3.73437c0.39044,-0.92839 0.37372,-1.99908 -0.0957,-2.92187c-0.69626,-1.3714 -0.96972,-2.28695 -0.96289,-3.66992c0.0025,-0.51627 0.30294,-1.55349 0.6875,-2.69727c0.38457,-1.14377 0.84188,-2.41013 0.86523,-3.80664c0.00007,-0.00846 0.00007,-0.01693 0,-0.02539c0,0.25171 0.00961,0.10832 0.00391,-0.11328c-0.08999,-3.21319 -2.88283,-5.65416 -5.99414,-5.48438zM17.5,18c-1.38071,0 -2.5,1.11929 -2.5,2.5c0,1.38071 1.11929,2.5 2.5,2.5c1.38071,0 2.5,-1.11929 2.5,-2.5c0,-1.38071 -1.11929,-2.5 -2.5,-2.5zM30.5,18c-1.38071,0 -2.5,1.11929 -2.5,2.5c0,1.38071 1.11929,2.5 2.5,2.5c1.38071,0 2.5,-1.11929 2.5,-2.5c0,-1.38071 -1.11929,-2.5 -2.5,-2.5zM24,26c-5.6,0 -8.65234,3.53906 -8.65234,3.53906c-0.34341,0.41168 -0.44107,0.97531 -0.2562,1.47853c0.18487,0.50322 0.6242,0.86957 1.15245,0.96102c0.52825,0.09145 1.06516,-0.10589 1.40844,-0.51768c0,0 1.94766,-2.46094 6.34766,-2.46094c4.4,0 6.34766,2.46094 6.34766,2.46094c0.34328,0.41179 0.88019,0.60913 1.40844,0.51768c0.52825,-0.09145 0.96757,-0.4578 1.15245,-0.96102c0.18487,-0.50322 0.08721,-1.06685 -0.2562,-1.47853c0,0 -3.05234,-3.53906 -8.65234,-3.53906z"></path></g></g></svg>