<svg xmlns="http://www.w3.org/2000/svg"  viewBox="0 0 48 48" width="48px" height="48px"><path d="M 12.501953 4.0078125 C 10.037247 4.0078125 8.0019531 6.0417034 8.0019531 8.5058594 L 8.0019531 13.705078 A 1.50015 1.50015 0 1 0 11.001953 13.705078 L 11.001953 8.5058594 C 11.001953 7.5720153 11.566659 7.0078125 12.501953 7.0078125 L 37 7.0078125 L 37 24.505859 A 1.50015 1.50015 0 1 0 40 24.505859 L 40 6.5078125 C 40 5.8744792 39.763202 5.1987489 39.285156 4.7207031 C 38.80711 4.2426574 38.133333 4.0078125 37.5 4.0078125 L 12.501953 4.0078125 z M 23.996094 12.007812 A 1.50015 1.50015 0 0 0 22.605469 12.958984 L 17.117188 26.945312 A 1.50015 1.50015 0 1 0 19.910156 28.041016 L 20.904297 25.505859 L 27.097656 25.505859 L 28.091797 28.041016 A 1.50015 1.50015 0 1 0 30.884766 26.945312 L 25.396484 12.958984 A 1.50015 1.50015 0 0 0 23.996094 12.007812 z M 24 17.611328 L 25.919922 22.505859 L 22.082031 22.505859 L 24 17.611328 z M 9.4785156 19.484375 A 1.50015 1.50015 0 0 0 8.0019531 21.005859 L 8.0019531 39.505859 A 1.50015 1.50015 0 0 0 8.0351562 39.839844 C 8.2118582 42.149043 10.152059 44.005859 12.501953 44.005859 L 37.498047 44.005859 A 1.50015 1.50015 0 1 0 37.498047 41.005859 L 12.501953 41.005859 C 11.566071 41.005859 11.001953 40.441153 11.001953 39.505859 C 11.001953 38.570565 11.566659 38.005859 12.501953 38.005859 L 38.251953 38.005859 A 1.50015 1.50015 0 0 0 39.548828 37.595703 A 1.50015 1.50015 0 0 0 39.589844 37.556641 A 1.50015 1.50015 0 0 0 39.998047 36.253906 L 39.998047 31.306641 A 1.50015 1.50015 0 0 0 38.476562 29.785156 A 1.50015 1.50015 0 0 0 36.998047 31.306641 L 36.998047 35.005859 L 12.501953 35.005859 C 11.974388 35.005859 11.474421 35.116358 11.001953 35.287109 L 11.001953 21.005859 A 1.50015 1.50015 0 0 0 9.4785156 19.484375 z"/></svg>