<svg xmlns="http://www.w3.org/2000/svg" xmlns:xlink="http://www.w3.org/1999/xlink" viewBox="0,0,256,256" width="48px" height="48px" fill-rule="nonzero"><g fill-opacity="0" fill="#dddddd" fill-rule="nonzero" stroke="none" stroke-width="1" stroke-linecap="butt" stroke-linejoin="miter" stroke-miterlimit="10" stroke-dasharray="" stroke-dashoffset="0" font-family="none" font-weight="none" font-size="none" text-anchor="none" style="mix-blend-mode: normal"><path d="M0,256v-256h256v256z" id="bgRectangle"></path></g><g fill="#000000" fill-rule="nonzero" stroke="none" stroke-width="1" stroke-linecap="butt" stroke-linejoin="miter" stroke-miterlimit="10" stroke-dasharray="" stroke-dashoffset="0" font-family="none" font-weight="none" font-size="none" text-anchor="none" style="mix-blend-mode: normal"><g transform="scale(5.33333,5.33333)"><path d="M29.47656,3.97852c-0.07269,0.0019 -0.14515,0.00908 -0.2168,0.02148h-7.91992c-0.54095,-0.00765 -1.04412,0.27656 -1.31683,0.74381c-0.27271,0.46725 -0.27271,1.04514 0,1.51238c0.27271,0.46725 0.77588,0.75146 1.31683,0.74381h6.66016v5.5c0,1.91496 1.58505,3.5 3.5,3.5h5.5v5h-1.27734c-0.54095,-0.00765 -1.04412,0.27656 -1.31683,0.74381c-0.27271,0.46725 -0.27271,1.04514 0,1.51238c0.27271,0.46725 0.77588,0.75146 1.31683,0.74381h3.27734v10h-5h-7.33984h-17.66016v-8v-2h9.19141h5.57422h6.00391c0.54095,0.00765 1.04412,-0.27656 1.31683,-0.74381c0.27271,-0.46725 0.27271,-1.04514 0,-1.51238c-0.27271,-0.46725 -0.77588,-0.75146 -1.31683,-0.74381h-6.00391h-5.57422h-7.19141v-12.5c0,-0.8465 0.6535,-1.5 1.5,-1.5h2.20117c0.54095,0.00765 1.04412,-0.27656 1.31683,-0.74381c0.27271,-0.46725 0.27271,-1.04514 0,-1.51238c-0.27271,-0.46725 -0.77588,-0.75146 -1.31683,-0.74381h-2.20117c-2.4675,0 -4.5,2.0325 -4.5,4.5v12.70898c-1.09916,0.26097 -2,1.12085 -2,2.29102v2.5v8.5c0,1.17017 0.90084,2.03005 2,2.29102v2.70898c0,2.4675 2.0325,4.5 4.5,4.5h2.37109c0.54095,0.00765 1.04412,-0.27656 1.31683,-0.74381c0.27271,-0.46725 0.27271,-1.04514 0,-1.51238c-0.27271,-0.46725 -0.77588,-0.75146 -1.31683,-0.74381h-2.37109c-0.8465,0 -1.5,-0.6535 -1.5,-1.5v-2.5h15.66016h7.33984h3v2.5c0,0.8465 -0.6535,1.5 -1.5,1.5h-14.45703c-0.54095,-0.00765 -1.04412,0.27656 -1.31683,0.74381c-0.27271,0.46725 -0.27271,1.04514 0,1.51238c0.27271,0.46725 0.77588,0.75146 1.31683,0.74381h14.45703c2.4675,0 4.5,-2.0325 4.5,-4.5v-2.70898c1.09916,-0.26097 2,-1.12085 2,-2.29102v-11c0,-1.17017 -0.90084,-2.03005 -2,-2.29102v-6.46289c0.0805,-0.48552 -0.08226,-0.97964 -0.43555,-1.32227c-0.0013,-0.00196 -0.0026,-0.00391 -0.00391,-0.00586c-0.00324,-0.00327 -0.0065,-0.00653 -0.00977,-0.00977c-0.00453,-0.00393 -0.00909,-0.00784 -0.01367,-0.01172c-0.04146,-0.03958 -0.08515,-0.07675 -0.13086,-0.11133l-8.69336,-8.69336c-0.04522,-0.05961 -0.09484,-0.11576 -0.14844,-0.16797c-0.0013,-0.00196 -0.0026,-0.00391 -0.00391,-0.00586c-0.00324,-0.00327 -0.0065,-0.00653 -0.00977,-0.00977c-0.00453,-0.00393 -0.00909,-0.00784 -0.01367,-0.01172c-0.28475,-0.27344 -0.66581,-0.42362 -1.06055,-0.41797zM31,9.12109l3.87891,3.87891h-3.37891c-0.29504,0 -0.5,-0.20495 -0.5,-0.5zM19.29297,25c-1.815,0 -3.29297,1.794 -3.29297,4c0,2.206 1.47602,4 3.29102,4c1.442,0 2.31452,-0.97573 2.60352,-1.55273c0.069,-0.138 0.10547,-0.29227 0.10547,-0.44727c0,0 0.00195,-1.24192 0.00195,-1.29492c0,-0.552 -0.447,-1 -1,-1h-0.63867c-0.553,0 -1,0.448 -1,1c0,0.424 0.26472,0.78173 0.63672,0.92773v0.05859c-0.125,0.137 -0.35103,0.30859 -0.70703,0.30859c-0.688,0 -1.29297,-0.935 -1.29297,-2c0,-1.065 0.60302,-2 1.29102,-2c0.536,0 0.77945,0.38727 0.81445,0.44727c0.247,0.494 0.8468,0.69627 1.3418,0.44727c0.494,-0.247 0.69427,-0.8478 0.44727,-1.3418c-0.289,-0.577 -1.15956,-1.55273 -2.60156,-1.55273zM25,25c-0.552,0 -1,0.448 -1,1v6c0,0.552 0.448,1 1,1c0.552,0 1,-0.448 1,-1v-6c0,-0.552 -0.448,-1 -1,-1zM29,25c-0.552,0 -1,0.448 -1,1v6c0,0.552 0.448,1 1,1c0.552,0 1,-0.448 1,-1v-2h1.5c0.552,0 1,-0.448 1,-1c0,-0.552 -0.448,-1 -1,-1h-1.5v-1h2c0.552,0 1,-0.448 1,-1c0,-0.552 -0.448,-1 -1,-1z"></path></g></g></svg>