<svg xmlns="http://www.w3.org/2000/svg" xmlns:xlink="http://www.w3.org/1999/xlink" viewBox="0,0,256,256" width="48px" height="48px" fill-rule="nonzero"><g fill-opacity="0" fill="#dddddd" fill-rule="nonzero" stroke="none" stroke-width="1" stroke-linecap="butt" stroke-linejoin="miter" stroke-miterlimit="10" stroke-dasharray="" stroke-dashoffset="0" font-family="none" font-weight="none" font-size="none" text-anchor="none" style="mix-blend-mode: normal"><path d="M0,256v-256h256v256z" id="bgRectangle"></path></g><g fill="#000000" fill-rule="nonzero" stroke="none" stroke-width="1" stroke-linecap="butt" stroke-linejoin="miter" stroke-miterlimit="10" stroke-dasharray="" stroke-dashoffset="0" font-family="none" font-weight="none" font-size="none" text-anchor="none" style="mix-blend-mode: normal"><g transform="scale(5.33333,5.33333)"><path d="M24,2c-2.7421,0 -5,2.25789 -5,5h-6c-2.46471,0 -4.5,2.03529 -4.5,4.5v9.80078v6.79883v10.40039c0,2.46471 2.03529,4.5 4.5,4.5h9.12891c0.54095,0.00765 1.04412,-0.27656 1.31683,-0.74381c0.27271,-0.46725 0.27271,-1.04514 0,-1.51238c-0.27271,-0.46725 -0.77588,-0.75146 -1.31683,-0.74381h-9.12891c-0.93529,0 -1.5,-0.56471 -1.5,-1.5v-10.40039v-6.79883v-9.80078c0,-0.93529 0.56471,-1.5 1.5,-1.5h6v0.5c0,0.63333 0.2368,1.30711 0.71484,1.78516c0.47805,0.47805 1.15182,0.71484 1.78516,0.71484h5c0.63333,0 1.30711,-0.2368 1.78516,-0.71484c0.47805,-0.47805 0.71484,-1.15182 0.71484,-1.78516v-0.5h6c0.93529,0 1.5,0.56471 1.5,1.5v1.80078v7.09961v0.76953c-0.00765,0.54095 0.27656,1.04412 0.74381,1.31683c0.46725,0.27271 1.04514,0.27271 1.51238,0c0.46725,-0.27271 0.75146,-0.77588 0.74381,-1.31683v-0.76953v-7.09961v-1.80078c0,-2.46471 -2.03529,-4.5 -4.5,-4.5h-6c0,-2.74211 -2.2579,-5 -5,-5zM24,5c1.05789,0 2,0.94211 2,2v3h-4v-3c0,-1.05789 0.94211,-2 2,-2zM24,16c-1.54167,0 -2.88785,0.63213 -3.74609,1.59766c-0.85824,0.96552 -1.25391,2.19401 -1.25391,3.40234c0,1.20833 0.39566,2.43682 1.25391,3.40234c0.85824,0.96552 2.20443,1.59766 3.74609,1.59766c1.54167,0 2.88785,-0.63213 3.74609,-1.59766c0.85824,-0.96552 1.25391,-2.19401 1.25391,-3.40234c0,-1.20833 -0.39566,-2.43682 -1.25391,-3.40234c-0.85824,-0.96552 -2.20443,-1.59766 -3.74609,-1.59766zM24,19c0.79167,0 1.19548,0.24287 1.50391,0.58984c0.30842,0.34698 0.49609,0.86849 0.49609,1.41016c0,0.54167 -0.18767,1.06318 -0.49609,1.41016c-0.30842,0.34698 -0.71224,0.58984 -1.50391,0.58984c-0.79167,0 -1.19548,-0.24287 -1.50391,-0.58984c-0.30842,-0.34698 -0.49609,-0.86849 -0.49609,-1.41016c0,-0.54167 0.18767,-1.06318 0.49609,-1.41016c0.30842,-0.34698 0.71224,-0.58984 1.50391,-0.58984zM36.26953,23.9043c-0.3966,-0.00892 -0.79088,0.00444 -1.18164,0.04102c-0.78153,0.07314 -1.54984,0.23678 -2.29492,0.49219c-0.51482,0.16767 -0.89933,0.59975 -1.00611,1.13055c-0.10678,0.5308 0.08075,1.07795 0.49068,1.43165c0.40993,0.3537 0.97865,0.45907 1.48808,0.27569c1.04721,-0.35897 2.12478,-0.46184 3.29883,-0.30469c4.35348,0.58452 7.46234,4.54504 6.86523,8.99414c-0.08924,0.66762 -0.23973,1.19292 -0.47852,1.74023c-0.2215,0.49252 -0.16119,1.06608 0.15791,1.50175c0.31911,0.43567 0.84775,0.6662 1.38415,0.6036c0.53639,-0.0626 0.99774,-0.40868 1.20794,-0.90613c0.34322,-0.78668 0.57841,-1.62263 0.70117,-2.54102c0.81289,-6.0569 -3.48298,-11.56575 -9.4375,-12.36523c-0.39979,-0.05361 -0.79871,-0.08483 -1.19531,-0.09375zM20,28c-2.18571,0 -4,1.81429 -4,4c0,1.34068 0.79565,2.45238 1.79297,3.20898c0.99732,0.75661 2.25946,1.26517 3.6875,1.54883c0.52582,0.10441 1.0674,-0.07966 1.42069,-0.48286c0.35329,-0.4032 0.46461,-0.96427 0.29202,-1.47181c-0.17259,-0.50754 -0.60287,-0.88444 -1.12872,-0.98868c-1.06896,-0.21234 -1.9421,-0.6035 -2.45703,-0.99414c-0.51493,-0.39064 -0.60742,-0.67399 -0.60742,-0.82031c0,-0.61429 0.38571,-1 1,-1h5.70313c-0.28599,0.76843 -0.48998,1.57691 -0.60547,2.43555c-0.81289,6.0569 3.48298,11.56575 9.4375,12.36523c2.05939,0.27705 4.10002,-0.02991 5.87891,-0.86328c0.4972,-0.21982 0.83657,-0.69142 0.88707,-1.23269c0.0505,-0.54127 -0.19579,-1.06751 -0.64375,-1.37551c-0.44796,-0.30799 -1.02749,-0.34954 -1.51481,-0.1086c-1.23511,0.57863 -2.69842,0.81037 -4.20703,0.60742c-4.35348,-0.58452 -7.46234,-4.54504 -6.86523,-8.99414c0.1734,-1.2892 0.55275,-2.28945 1.21875,-3.33789c0.19725,-0.30097 0.27973,-0.66281 0.23242,-1.01953c-0.01293,-0.82766 -0.69381,-1.48843 -1.52148,-1.47656zM40.1543,30.78516c-0.38918,0.01595 -0.7569,0.18265 -1.02539,0.46484l-3.74023,3.81836l-1.22852,-1.22852c-0.37623,-0.39185 -0.9349,-0.54969 -1.46055,-0.41265c-0.52565,0.13704 -0.93616,0.54754 -1.07319,1.07319c-0.13704,0.52565 0.0208,1.08432 0.41265,1.46055l2.30078,2.29883c0.283,0.28291 0.66731,0.44103 1.06746,0.43919c0.40016,-0.00183 0.783,-0.16347 1.06339,-0.44896l4.80078,-4.90039c0.43979,-0.43583 0.56664,-1.09707 0.31935,-1.6647c-0.24729,-0.56763 -0.8179,-0.92503 -1.43654,-0.89976z"></path></g></g></svg>