<svg xmlns="http://www.w3.org/2000/svg" xmlns:xlink="http://www.w3.org/1999/xlink" viewBox="0,0,256,256" width="48px" height="48px" fill-rule="nonzero"><defs><linearGradient x1="40.035" y1="12.28" x2="11.292" y2="41.023" gradientUnits="userSpaceOnUse" id="color-1"><stop offset="0" stop-color="#60fea4"></stop><stop offset="0.033" stop-color="#6afeaa"></stop><stop offset="0.197" stop-color="#97fec4"></stop><stop offset="0.362" stop-color="#bdffd9"></stop><stop offset="0.525" stop-color="#daffea"></stop><stop offset="0.687" stop-color="#eefff5"></stop><stop offset="0.846" stop-color="#fbfffd"></stop><stop offset="1" stop-color="#ffffff"></stop></linearGradient></defs><g fill-opacity="0" fill="#dddddd" fill-rule="nonzero" stroke="none" stroke-width="1" stroke-linecap="butt" stroke-linejoin="miter" stroke-miterlimit="10" stroke-dasharray="" stroke-dashoffset="0" font-family="none" font-weight="none" font-size="none" text-anchor="none" style="mix-blend-mode: normal"><path d="M0,256v-256h256v256z" id="bgRectangle"></path></g><g fill="none" fill-rule="nonzero" stroke="none" stroke-width="none" stroke-linecap="none" stroke-linejoin="none" stroke-miterlimit="10" stroke-dasharray="" stroke-dashoffset="0" font-family="none" font-weight="none" font-size="none" text-anchor="none" style="mix-blend-mode: normal"><g transform="scale(5.33333,5.33333)"><path d="M38,25.09v-13.602c0,-1.657 -1.343,-3 -3,-3h-7v-0.946c0,-2.194 -1.829,-4.042 -4,-4.042c-2.171,0 -4,1.848 -4,4.042v0.946h-7c-1.657,0 -3,1.343 -3,3v27c0,1.657 1.343,3 3,3h15.984c1.771,1.797 4.231,2.913 6.954,2.913c5.394,0 9.767,-4.373 9.767,-9.767c-0.001,-4.685 -3.302,-8.596 -7.705,-9.544z" fill="url(#color-1)" stroke="none" stroke-width="1" stroke-linecap="butt" stroke-linejoin="miter"></path><path d="M22.128,41.5h-9.128c-1.7,0 -3,-1.3 -3,-3v-10.4v-6.8v-9.8c0,-1.7 1.3,-3 3,-3h6.8" fill="none" stroke="#10e36c" stroke-width="3" stroke-linecap="round" stroke-linejoin="round"></path><path d="M27.6,8.5h7.4c1.7,0 3,1.3 3,3v1.8v7.1v0.77" fill="none" stroke="#10e36c" stroke-width="3" stroke-linecap="round" stroke-linejoin="round"></path><circle cx="24" cy="21" r="3.5" fill="none" stroke="#10e36c" stroke-width="3" stroke-linecap="butt" stroke-linejoin="miter"></circle><path d="M28,29.5h-8c-1.4,0 -2.5,1.1 -2.5,2.5v0c0,1.487 1.776,2.79 4.273,3.286" fill="none" stroke="#10e36c" stroke-width="3" stroke-linecap="round" stroke-linejoin="round"></path><path d="M26.5,11.5h-5c-0.6,0 -1,-0.4 -1,-1v-3.5c0,-1.9 1.6,-3.5 3.5,-3.5v0c1.9,0 3.5,1.6 3.5,3.5v3.5c0,0.6 -0.4,1 -1,1z" fill="none" stroke="#10e36c" stroke-width="3" stroke-linecap="round" stroke-linejoin="round"></path><path d="M39.778,43.58c-1.507,0.706 -3.259,0.975 -5.043,0.735c-5.154,-0.692 -8.856,-5.427 -8.151,-10.68c0.2,-1.487 0.67,-2.735 1.438,-3.944" fill="none" stroke="#10e36c" stroke-width="3" stroke-linecap="round" stroke-linejoin="round"></path><path d="M33.28,25.857c1.269,-0.435 2.598,-0.559 3.985,-0.373c5.154,0.692 8.856,5.427 8.151,10.68c-0.106,0.793 -0.299,1.473 -0.59,2.14" fill="none" stroke="#10e36c" stroke-width="3" stroke-linecap="round" stroke-linejoin="round"></path><path d="M33.1,34.9l2.3,2.3l4.8,-4.9" fill="none" stroke="#10e36c" stroke-width="3" stroke-linecap="round" stroke-linejoin="round"></path></g></g></svg>