<svg xmlns="http://www.w3.org/2000/svg" xmlns:xlink="http://www.w3.org/1999/xlink" viewBox="0,0,256,256" width="48px" height="48px" fill-rule="nonzero"><g fill-opacity="0" fill="#dddddd" fill-rule="nonzero" stroke="none" stroke-width="1" stroke-linecap="butt" stroke-linejoin="miter" stroke-miterlimit="10" stroke-dasharray="" stroke-dashoffset="0" font-family="none" font-weight="none" font-size="none" text-anchor="none" style="mix-blend-mode: normal"><path d="M0,256v-256h256v256z" id="bgRectangle"></path></g><g fill="none" fill-rule="nonzero" stroke="#000000" stroke-width="3" stroke-linecap="round" stroke-linejoin="round" stroke-miterlimit="10" stroke-dasharray="" stroke-dashoffset="0" font-family="none" font-weight="none" font-size="none" text-anchor="none" style="mix-blend-mode: normal"><g transform="scale(5.33333,5.33333)"><path d="M24,38.5v6"></path><path d="M31.5,16v9c0,4.1 -3.4,7.5 -7.5,7.5v0c-4.1,0 -7.5,-3.4 -7.5,-7.5v-1.7"></path><path d="M16.5,17.4v-6.4c0,-4.1 3.4,-7.5 7.5,-7.5v0c4.1,0 7.5,3.4 7.5,7.5"></path><path d="M37.1,28.1c-1.4,6 -6.8,10.4 -13.1,10.4c-7.5,0 -13.5,-6 -13.5,-13.5c0,-2.5 0,-4.5 0,-4.5"></path><path d="M37.5,20.5c0,0 0,1.2 0,2.8"></path><path d="M18,45h12"></path></g></g></svg>