<svg xmlns="http://www.w3.org/2000/svg" xmlns:xlink="http://www.w3.org/1999/xlink" viewBox="0,0,256,256" width="48px" height="48px" fill-rule="nonzero"><g fill-opacity="0" fill="#dddddd" fill-rule="nonzero" stroke="none" stroke-width="1" stroke-linecap="butt" stroke-linejoin="miter" stroke-miterlimit="10" stroke-dasharray="" stroke-dashoffset="0" font-family="none" font-weight="none" font-size="none" text-anchor="none" style="mix-blend-mode: normal"><path d="M0,256v-256h256v256z" id="bgRectangle"></path></g><g fill="#000000" fill-rule="nonzero" stroke="none" stroke-width="1" stroke-linecap="butt" stroke-linejoin="miter" stroke-miterlimit="10" stroke-dasharray="" stroke-dashoffset="0" font-family="none" font-weight="none" font-size="none" text-anchor="none" style="mix-blend-mode: normal"><g transform="scale(5.33333,5.33333)"><path d="M39.36328,6.41016c-0.36585,-0.00127 -0.73762,0.07637 -1.08594,0.24609l-22.26562,10.83203c-0.49958,0.22347 -0.83782,0.70127 -0.88257,1.24671c-0.04475,0.54545 0.21108,1.07199 0.66755,1.3739c0.45647,0.30191 1.04113,0.33129 1.52557,0.07665l12.44727,-6.05469l-17.86719,14.03906l-4.81055,-3.00586l4.27539,-2.08008c0.49347,-0.22754 0.82531,-0.70414 0.86747,-1.24591c0.04216,-0.54176 -0.21195,-1.06397 -0.66427,-1.36512c-0.45232,-0.30114 -1.03214,-0.33413 -1.5157,-0.08624l-5.08789,2.47461c-1.69601,0.82522 -1.83039,3.36784 -0.23047,4.36719l5.99023,3.74414l2.18555,7.29102c0.29566,0.98396 1.18386,1.64909 2.08399,1.76172c0.89968,0.11257 1.92421,-0.31507 2.45313,-1.19531l1.77539,-2.95898l12.6582,-15.26172c0.36194,-0.41012 0.47197,-0.98472 0.28715,-1.49954c-0.18482,-0.51482 -0.63521,-0.88823 -1.17535,-0.97449c-0.54014,-0.08626 -1.08442,0.12831 -1.42039,0.55996l-12.66016,15.26563c-0.05667,0.0601 -0.10827,0.12477 -0.1543,0.19336c-0.00196,0.0026 -0.00392,0.0052 -0.00586,0.00781c-0.036,0.05256 -0.06862,0.10736 -0.09766,0.16406l-1.19531,1.99023l-1.73047,-5.76953l24.35156,-19.13086l-8.92578,29.2168l-5.60547,-3.73633c-0.44584,-0.30743 -1.02276,-0.3507 -1.50947,-0.1132c-0.48671,0.23749 -0.80762,0.71887 -0.83965,1.25948c-0.03203,0.54061 0.2298,1.05652 0.68506,1.34982l6.16211,4.10938c1.35947,0.90794 3.30165,0.21249 3.7793,-1.34961l9.93555,-32.51953c0.30166,-0.98779 -0.07344,-2.03896 -0.76562,-2.63086c-0.34609,-0.29595 -0.79429,-0.49508 -1.27148,-0.56445c-0.1193,-0.01734 -0.24133,-0.02692 -0.36328,-0.02734z"></path></g></g></svg>