<svg xmlns="http://www.w3.org/2000/svg" xmlns:xlink="http://www.w3.org/1999/xlink" viewBox="0,0,256,256" width="48px" height="48px" fill-rule="nonzero"><g fill-opacity="0" fill="#dddddd" fill-rule="nonzero" stroke="none" stroke-width="1" stroke-linecap="butt" stroke-linejoin="miter" stroke-miterlimit="10" stroke-dasharray="" stroke-dashoffset="0" font-family="none" font-weight="none" font-size="none" text-anchor="none" style="mix-blend-mode: normal"><path d="M0,256v-256h256v256z" id="bgRectangle"></path></g><g fill="#000000" fill-rule="nonzero" stroke="none" stroke-width="1" stroke-linecap="butt" stroke-linejoin="miter" stroke-miterlimit="10" stroke-dasharray="" stroke-dashoffset="0" font-family="none" font-weight="none" font-size="none" text-anchor="none" style="mix-blend-mode: normal"><g transform="scale(5.33333,5.33333)"><path d="M24,3.99805c-11.02771,0 -20,8.97229 -20,20c0,1.29583 0.12516,2.56446 0.36328,3.79297c0.08383,0.54322 0.45803,0.99709 0.9753,1.18297c0.51727,0.18587 1.09477,0.07397 1.50518,-0.29165c0.41041,-0.36562 0.588,-0.92641 0.46288,-1.46163c-0.20187,-1.04149 -0.30664,-2.11849 -0.30664,-3.22266c0,-9.40629 7.59371,-17 17,-17c4.39702,0 8.38696,1.66219 11.4043,4.39453c0.39427,0.37733 0.96235,0.51078 1.48338,0.34847c0.52104,-0.16231 0.91283,-0.59476 1.02307,-1.12924c0.11024,-0.53448 -0.07848,-1.08667 -0.49278,-1.44188c-3.54666,-3.21166 -8.26299,-5.17187 -13.41797,-5.17187zM40.86133,14.98242c-0.50313,0.01585 -0.96477,0.28298 -1.22922,0.71129c-0.26445,0.42831 -0.29646,0.96071 -0.08524,1.41762c0.93417,2.10532 1.45313,4.42941 1.45313,6.88672c0,9.40629 -7.59371,17 -17,17c-3.00158,0 -5.8094,-0.78052 -8.25781,-2.14453l-1.13281,-0.13477l-7.38672,2.06055l2.0625,-7.38281c0.14424,-0.51641 0.00198,-1.07054 -0.37318,-1.45361c-0.37517,-0.38306 -0.92622,-0.53683 -1.44552,-0.40338c-0.5193,0.13346 -0.92793,0.53386 -1.07192,1.05034l-2.30078,8.23633c-0.50495,1.8034 1.27818,3.58644 3.08203,3.08203l7.76758,-2.16797c2.72738,1.39608 5.78439,2.25781 9.05664,2.25781c11.02771,0 20,-8.97229 20,-20c0,-2.88069 -0.6111,-5.62483 -1.71094,-8.10352c-0.24225,-0.5694 -0.80925,-0.93163 -1.42773,-0.91211zM31,15c-1.105,0 -2,0.895 -2,2v14c0,1.105 0.895,2 2,2c1.105,0 2,-0.895 2,-2v-14c0,-1.105 -0.895,-2 -2,-2zM17,19c-1.105,0 -2,0.895 -2,2v10c0,1.105 0.895,2 2,2c1.105,0 2,-0.895 2,-2v-10c0,-1.105 -0.895,-2 -2,-2zM24,23c-1.105,0 -2,0.895 -2,2v6c0,1.105 0.895,2 2,2c1.105,0 2,-0.895 2,-2v-6c0,-1.105 -0.895,-2 -2,-2z"></path></g></g></svg>