<svg xmlns="http://www.w3.org/2000/svg" xmlns:xlink="http://www.w3.org/1999/xlink" viewBox="0,0,256,256" width="48px" height="48px" fill-rule="nonzero"><g fill-opacity="0" fill="#dddddd" fill-rule="nonzero" stroke="none" stroke-width="1" stroke-linecap="butt" stroke-linejoin="miter" stroke-miterlimit="10" stroke-dasharray="" stroke-dashoffset="0" font-family="none" font-weight="none" font-size="none" text-anchor="none" style="mix-blend-mode: normal"><path d="M0,256v-256h256v256z" id="bgRectangle"></path></g><g fill="#000000" fill-rule="nonzero" stroke="none" stroke-width="1" stroke-linecap="butt" stroke-linejoin="miter" stroke-miterlimit="10" stroke-dasharray="" stroke-dashoffset="0" font-family="none" font-weight="none" font-size="none" text-anchor="none" style="mix-blend-mode: normal"><g transform="scale(5.33333,5.33333)"><path d="M23.97656,3.97852c-0.3883,0.00722 -0.75867,0.16475 -1.0332,0.43945c-0.0119,0.01088 -0.02362,0.02195 -0.03516,0.0332c-0.33298,0.34053 -0.48448,0.81894 -0.4082,1.28906v4.75977v1.5c0.00008,0.82839 0.67161,1.49992 1.5,1.5c5.81623,0 10.5,4.68377 10.5,10.5c0,5.81623 -4.68377,10.5 -10.5,10.5c-5.81623,0 -10.5,-4.68377 -10.5,-10.5c0,-4.41819 2.71579,-8.17758 6.55664,-9.73437c0.76802,-0.3112 1.13835,-1.18608 0.82715,-1.9541c-0.3112,-0.76802 -1.18608,-1.13835 -1.9541,-0.82715c-4.65235,1.88572 -8.00705,6.29784 -8.39063,11.51563c-0.01302,-0.00017 -0.02604,-0.00017 -0.03906,0h-3.35547c0.37793,-6.30727 4.07225,-11.7067 9.46289,-14.31445c0.63555,-0.29678 0.98061,-0.99434 0.83083,-1.6796c-0.14978,-0.68525 -0.75441,-1.17523 -1.45583,-1.17978c-0.23601,-0.00082 -0.46888,0.05405 -0.67969,0.16016c-6.69073,3.23668 -11.30273,10.09772 -11.30273,18.01367c0,0.0582 0.01708,0.11183 0.01758,0.16992c-0.07268,0.31901 -0.03907,0.65303 0.0957,0.95117c0.59488,10.49757 9.24293,18.87891 19.88672,18.87891c2.40484,0 4.71764,-0.42598 6.85742,-1.20703c0.77827,-0.28423 1.17876,-1.14556 0.89453,-1.92383c-0.28423,-0.77827 -1.14556,-1.17876 -1.92383,-0.89453c-1.81622,0.66295 -3.77697,1.02539 -5.82812,1.02539c-8.721,0 -15.80142,-6.55231 -16.79883,-15h3.29883c0.05479,0.00039 0.10956,-0.00221 0.16406,-0.00781c0.96982,6.49562 6.57676,11.50781 13.33594,11.50781c7.43777,0 13.5,-6.06223 13.5,-13.5c0,-6.92408 -5.27361,-12.58892 -12,-13.34766v-0.15234v-3.42383c8.6989,0.75824 15.5,8.02428 15.5,16.92383c0,5.30396 -2.41781,10.02127 -6.21289,13.14063c-0.43429,0.33373 -0.65218,0.87762 -0.56843,1.41889c0.08375,0.54127 0.45583,0.99387 0.97068,1.18074c0.51485,0.18687 1.09061,0.0783 1.50205,-0.28323c4.46092,-3.66664 7.30859,-9.23899 7.30859,-15.45703c0,-10.93074 -8.81656,-19.83631 -19.71094,-19.99219c-0.10286,-0.02067 -0.2076,-0.03049 -0.3125,-0.0293z"></path></g></g></svg>