<svg xmlns="http://www.w3.org/2000/svg" xmlns:xlink="http://www.w3.org/1999/xlink" viewBox="0,0,256,256" width="48px" height="48px" fill-rule="nonzero"><g fill-opacity="0" fill="#dddddd" fill-rule="nonzero" stroke="none" stroke-width="1" stroke-linecap="butt" stroke-linejoin="miter" stroke-miterlimit="10" stroke-dasharray="" stroke-dashoffset="0" font-family="none" font-weight="none" font-size="none" text-anchor="none" style="mix-blend-mode: normal"><path d="M0,256v-256h256v256z" id="bgRectangle"></path></g><g fill="none" fill-rule="nonzero" stroke="none" stroke-width="none" stroke-linecap="none" stroke-linejoin="none" stroke-miterlimit="10" stroke-dasharray="" stroke-dashoffset="0" font-family="none" font-weight="none" font-size="none" text-anchor="none" style="mix-blend-mode: normal"><g transform="scale(5.33333,5.33333)"><path d="M25.04,30.45l9.85,0.03" fill="none" stroke="#000000" stroke-width="3" stroke-linecap="round" stroke-linejoin="round"></path><path d="M21.5,42.5h21" fill="none" stroke="#000000" stroke-width="3" stroke-linecap="round" stroke-linejoin="round"></path><path d="M21.5,36.5l10.5,-25l10.5,25" fill="none" stroke="#000000" stroke-width="3" stroke-linecap="round" stroke-linejoin="round"></path><path d="M8,21.5h12" fill="none" stroke="#000000" stroke-width="3" stroke-linecap="round" stroke-linejoin="round"></path><path d="M9.09,16.13c-0.61,0 -1.16,0.37 -1.39,0.94l-3.59,8.87c-0.34,0.84 0.14,1.82 1.07,2.03c0.73,0.16 1.46,-0.29 1.74,-0.98l3.56,-8.79c0.4,-0.99 -0.33,-2.07 -1.39,-2.07z" fill="#000000" stroke="none" stroke-width="1" stroke-linecap="butt" stroke-linejoin="miter"></path><path d="M23.81,26.26l-8.42,-21.32c-0.23,-0.57 -0.78,-0.94 -1.39,-0.94c-0.61,0 -1.16,0.37 -1.39,0.94l-2.46,6.07c-0.4,0.99 0.33,2.06 1.39,2.06v0c0.61,0 1.16,-0.37 1.39,-0.94l1.07,-2.63c0,0 4.92,12.6 7.08,17.82c0.39,0.94 1.43,1.28 2.24,0.66c0.56,-0.43 0.72,-1.13 0.49,-1.72z" fill="#000000" stroke="none" stroke-width="1" stroke-linecap="butt" stroke-linejoin="miter"></path></g></g></svg>