<svg width="24" height="25" viewBox="0 0 24 25" fill="none" xmlns="http://www.w3.org/2000/svg">
<g id="send-fill">
<g id="Default">
<path d="M23.9464 1.52856C24.0578 1.25 23.9925 0.931839 23.7803 0.719692C23.5682 0.507545 23.25 0.442239 22.9715 0.553664L1.1508 9.28193L1.14861 9.28281L0.471467 9.55367C0.210206 9.65817 0.0294217 9.90012 0.00325917 10.1803C-0.0229034 10.4605 0.109958 10.7317 0.347354 10.8828L0.961783 11.2738L0.964629 11.2756L8.45675 16.0433L13.2244 23.5354L13.2267 23.539L13.6173 24.1527C13.7683 24.3901 14.0396 24.5229 14.3197 24.4968C14.5999 24.4706 14.8419 24.2898 14.9464 24.0286L23.9464 1.52856ZM21.1966 4.36405L9.95575 15.6049L9.63276 15.0974C9.57382 15.0048 9.49528 14.9262 9.40267 14.8673L8.89508 14.5443L20.1359 3.30343L21.9037 2.59631L21.1966 4.36405Z" fill="#8E8E93"/>
</g>
</g>
</svg>
