<svg xmlns="http://www.w3.org/2000/svg" xmlns:xlink="http://www.w3.org/1999/xlink" viewBox="0,0,256,256" width="48px" height="48px" fill-rule="nonzero"><g fill-opacity="0" fill="#dddddd" fill-rule="nonzero" stroke="none" stroke-width="1" stroke-linecap="butt" stroke-linejoin="miter" stroke-miterlimit="10" stroke-dasharray="" stroke-dashoffset="0" font-family="none" font-weight="none" font-size="none" text-anchor="none" style="mix-blend-mode: normal"><path d="M0,256v-256h256v256z" id="bgRectangle"></path></g><g fill="#000000" fill-rule="nonzero" stroke="none" stroke-width="1" stroke-linecap="butt" stroke-linejoin="miter" stroke-miterlimit="10" stroke-dasharray="" stroke-dashoffset="0" font-family="none" font-weight="none" font-size="none" text-anchor="none" style="mix-blend-mode: normal"><g transform="scale(5.33333,5.33333)"><path d="M24,2.68945c-0.90896,0 -1.81697,0.27196 -2.59766,0.81836c-0.00261,0.00194 -0.00522,0.0039 -0.00781,0.00586c-2.35707,1.66934 -6.97396,4.4882 -12.4043,5.1543c-0.00521,0.00062 -0.01042,0.00127 -0.01562,0.00195c-2.21747,0.29634 -3.96094,2.18432 -3.96094,4.45117v9.40625c0,3.0865 0.62694,7.0969 2.87891,11.16797c0.25187,0.48287 0.74566,0.79131 1.29009,0.80582c0.54442,0.01452 1.05395,-0.26716 1.3312,-0.73592c0.27725,-0.46876 0.27867,-1.05096 0.00372,-1.52107c-1.96203,-3.54693 -2.50391,-7.03529 -2.50391,-9.7168v-9.40625c0,-0.79914 0.50689,-1.36485 1.35742,-1.47852c6.22033,-0.76727 11.20902,-3.87651 13.75781,-5.68164l-0.00586,0.00586c0.48463,-0.33919 1.27123,-0.33919 1.75586,0c0.86218,0.61055 2.00388,1.3671 3.37695,2.13281c0.4684,0.26335 1.04187,0.25609 1.50346,-0.01902c0.46159,-0.27511 0.74081,-0.77607 0.73203,-1.31335c-0.00878,-0.53728 -0.30422,-1.02885 -0.77455,-1.28873c-1.25958,-0.70242 -2.31424,-1.40016 -3.11133,-1.96484c-0.00195,-0.00196 -0.0039,-0.00391 -0.00586,-0.00586c-0.78064,-0.5464 -1.69064,-0.81836 -2.59961,-0.81836zM35.07227,7.875c-0.75127,0.00041 -1.38639,0.55648 -1.48607,1.30111c-0.09968,0.74463 0.36682,1.44816 1.09153,1.64616c1.24553,0.36249 2.56723,0.65201 3.94922,0.82226c0.84989,0.11302 1.35742,0.67594 1.35742,1.47656v9.4082c0,5.59794 -2.15431,14.66018 -15.30859,20.68164c-0.46334,0.16563 -1.01754,0.14651 -1.30273,0.02734c-3.10961,-1.41818 -5.59884,-3.01091 -7.58594,-4.68555c-0.40771,-0.36112 -0.97912,-0.47289 -1.49285,-0.29202c-0.51373,0.18087 -0.88907,0.62598 -0.98061,1.16287c-0.09154,0.53689 0.1151,1.08123 0.53987,1.42212c2.21781,1.86907 4.95165,3.61167 8.29687,5.13477c0.01036,0.00468 0.02078,0.00923 0.03125,0.01367c1.14372,0.49039 2.40787,0.4624 3.57227,0.02539c0.03168,-0.01196 0.06295,-0.02499 0.09375,-0.03906c14.17805,-6.45468 17.13672,-16.9945 17.13672,-23.45117v-9.4082c0,-2.26738 -1.74282,-4.15619 -3.96094,-4.45117c-0.00521,-0.00068 -0.01041,-0.00133 -0.01563,-0.00195c-1.20825,-0.14801 -2.37849,-0.40244 -3.49219,-0.72656c-0.14363,-0.04422 -0.29308,-0.0666 -0.44336,-0.06641zM24,14c-1.54167,0 -2.88785,0.63213 -3.74609,1.59766c-0.85824,0.96552 -1.25391,2.19401 -1.25391,3.40234c0,1.20833 0.39566,2.43682 1.25391,3.40234c0.85824,0.96552 2.20443,1.59766 3.74609,1.59766c1.54167,0 2.88785,-0.63213 3.74609,-1.59766c0.85824,-0.96552 1.25391,-2.19401 1.25391,-3.40234c0,-1.20833 -0.39566,-2.43682 -1.25391,-3.40234c-0.85824,-0.96552 -2.20443,-1.59766 -3.74609,-1.59766zM24,17c0.79167,0 1.19548,0.24287 1.50391,0.58984c0.30842,0.34698 0.49609,0.86849 0.49609,1.41016c0,0.54167 -0.18767,1.06318 -0.49609,1.41016c-0.30842,0.34698 -0.71224,0.58984 -1.50391,0.58984c-0.79167,0 -1.19548,-0.24287 -1.50391,-0.58984c-0.30842,-0.34698 -0.49609,-0.86849 -0.49609,-1.41016c0,-0.54167 0.18767,-1.06318 0.49609,-1.41016c0.30842,-0.34698 0.71224,-0.58984 1.50391,-0.58984zM20,26c-2.18571,0 -4,1.81429 -4,4c0,1.71316 1.23219,2.99272 2.68555,3.78125c1.45336,0.78853 3.29223,1.21875 5.31445,1.21875c2.02222,0 3.86109,-0.43022 5.31445,-1.21875c1.45336,-0.78853 2.68555,-2.06809 2.68555,-3.78125c0,-2.18571 -1.81429,-4 -4,-4zM20,29h8c0.61429,0 1,0.38571 1,1c0,0.18684 -0.2186,0.65806 -1.11523,1.14453c-0.89664,0.48647 -2.30699,0.85547 -3.88477,0.85547c-1.57778,0 -2.98813,-0.36899 -3.88477,-0.85547c-0.89664,-0.48647 -1.11523,-0.95769 -1.11523,-1.14453c0,-0.61429 0.38571,-1 1,-1z"></path></g></g></svg>