<svg xmlns="http://www.w3.org/2000/svg"  viewBox="0 0 48 48" width="48px" height="48px"><path fill="none" stroke="#000" stroke-linecap="round" stroke-linejoin="round" stroke-miterlimit="10" stroke-width="3" d="M27,33.213V11.5h7.5v2.032c0,0.552,0.448,1,1,1h4c0.552,0,1-0.448,1-1V6.5c0-0.552-0.448-1-1-1H15.936"/><path fill="none" stroke="#000" stroke-linecap="round" stroke-linejoin="round" stroke-miterlimit="10" stroke-width="3" d="M10.064,5.5H8.5c-0.552,0-1,0.448-1,1v6.958c0,0.552,0.448,1,1,1h4c0.552,0,1-0.448,1-1V11.5H21v26h-2.5	c-0.552,0-1,0.448-1,1v4c0,0.552,0.448,1,1,1h11c0.552,0,1-0.448,1-1v-4c0-0.552-0.448-1-1-1H27"/></svg>