<svg xmlns="http://www.w3.org/2000/svg" xmlns:xlink="http://www.w3.org/1999/xlink" viewBox="0,0,256,256" width="48px" height="48px" fill-rule="nonzero"><g fill-opacity="0" fill="#dddddd" fill-rule="nonzero" stroke="none" stroke-width="1" stroke-linecap="butt" stroke-linejoin="miter" stroke-miterlimit="10" stroke-dasharray="" stroke-dashoffset="0" font-family="none" font-weight="none" font-size="none" text-anchor="none" style="mix-blend-mode: normal"><path d="M0,256v-256h256v256z" id="bgRectangle"></path></g><g fill="#000000" fill-rule="nonzero" stroke="none" stroke-width="1" stroke-linecap="butt" stroke-linejoin="miter" stroke-miterlimit="10" stroke-dasharray="" stroke-dashoffset="0" font-family="none" font-weight="none" font-size="none" text-anchor="none" style="mix-blend-mode: normal"><g transform="scale(5.33333,5.33333)"><path d="M24,4c-3.47866,0 -6.7616,0.89106 -9.61523,2.45898c-0.47755,0.254 -0.78139,0.74542 -0.79521,1.28615c-0.01381,0.54073 0.26453,1.04702 0.72849,1.32507c0.46396,0.27806 1.04168,0.28481 1.51202,0.01769c2.42437,-1.33207 5.20258,-2.08789 8.16992,-2.08789c9.40629,0 17,7.59371 17,17c0,4.19816 -1.51485,8.0253 -4.0293,10.99023c-0.35128,0.40833 -0.45667,0.97365 -0.27614,1.48114c0.18054,0.50748 0.61929,0.87922 1.14953,0.97396c0.53024,0.09474 1.07058,-0.10207 1.41567,-0.51564c2.95556,-3.48507 4.74023,-8.00785 4.74023,-12.92969c0,-11.02771 -8.97229,-20 -20,-20zM9.12695,11.53516c-0.49491,-0.00943 -0.96261,0.22588 -1.25,0.62891c-2.43618,3.31273 -3.87695,7.41382 -3.87695,11.83594c0,11.02771 8.97229,20 20,20c2.60221,0 5.09441,-0.49872 7.37891,-1.40625c0.51322,-0.18702 0.88423,-0.63823 0.96854,-1.17792c0.08431,-0.53969 -0.13139,-1.08256 -0.56311,-1.41721c-0.43172,-0.33465 -1.01123,-0.40819 -1.51285,-0.19197c-1.9395,0.77047 -4.05169,1.19336 -6.27148,1.19336c-9.40629,0 -17,-7.59371 -17,-17c0,-3.77188 1.2231,-7.24132 3.29492,-10.05859c0.34117,-0.44997 0.40075,-1.05341 0.15417,-1.56142c-0.24658,-0.50801 -0.75755,-0.83451 -1.32214,-0.84483zM30.35156,16.21289c-1.288,0 -2.5527,0.52536 -3.4707,1.44336l-4.00781,4.00781l-1.31445,-1.31445c-0.918,-0.918 -2.1837,-1.44531 -3.4707,-1.44531c-0.99,0 -1.93256,0.303 -2.72656,0.875c-1.599,1.152 -2.36883,3.18608 -1.79883,5.20508c0.227,0.804 0.70197,1.51837 1.29297,2.10938l4.52539,4.52344c0.781,0.781 1.779,1.34933 2.875,1.48633c1.496,0.187 2.93747,-0.31052 3.98047,-1.35352l1.17773,-1.17969c0.586,-0.586 0.586,-1.53609 0,-2.12109c-0.586,-0.586 -1.53414,-0.586 -2.11914,0l-1.18164,1.18164c-0.342,0.342 -0.79023,0.51367 -1.24023,0.51367c-0.449,0 -0.89823,-0.17167 -1.24023,-0.51367l-4.74219,-4.74414c-0.754,-0.753 -0.67939,-2.02088 0.22461,-2.67187c0.292,-0.21 0.63066,-0.30859 0.97266,-0.30859c0.49,0 0.98561,0.20241 1.34961,0.56641l2.72852,2.72852c0.195,0.195 0.45103,0.29297 0.70703,0.29297c0.256,0 0.51203,-0.09797 0.70703,-0.29297l5.42188,-5.42187c0.365,-0.365 0.86056,-0.56641 1.35156,-0.56641c0.342,0 0.68066,0.09764 0.97266,0.30664c0.904,0.65 0.97861,1.91888 0.22461,2.67188l-2.13867,2.13867c-0.586,0.586 -0.586,1.53609 0,2.12109c0.586,0.586 1.53609,0.586 2.12109,0l2.05273,-2.05078c0.59,-0.59 1.06401,-1.30633 1.29102,-2.11133c0.57,-2.02 -0.20078,-4.05408 -1.80078,-5.20508c-0.793,-0.57 -1.73561,-0.87109 -2.72461,-0.87109z"></path></g></g></svg>